<?xml version="1.0" encoding="UTF-8" standalone="no"?>
<!DOCTYPE svg PUBLIC "-//W3C//DTD SVG 1.1//EN" "http://www.w3.org/Graphics/SVG/1.1/DTD/svg11.dtd">
<svg xmlns="http://www.w3.org/2000/svg" xmlns:xlink="http://www.w3.org/1999/xlink" version="1.1" width="1041.6666pt" height="1041.6666pt" viewBox="0 0 1041.6666 1041.6666">
<g enable-background="new">
<clipPath id="cp0">
<path transform="matrix(.6666666,0,0,.6666666,0,0)" d="M 0 0 L 1562.5 0 L 1562.5 1562.5 L 0 1562.5 Z " fill-rule="evenodd"/>
</clipPath>
<g clip-path="url(#cp0)">
<path transform="matrix(2.0833333,0,0,2.0833333,0,0)" d="M 0 0 L 500 0 L 500 500 L 0 500 Z " fill="#ffffff"/>
</g>
<clipPath id="cp1">
<path transform="matrix(.6666666,0,0,.6666666,0,0)" d="M 0 0 L 1562.5 0 L 1562.5 1562.5 L 0 1562.5 Z " fill-rule="evenodd"/>
</clipPath>
<g clip-path="url(#cp1)">
<path transform="matrix(2.0833333,0,0,2.0833333,0,0)" d="M 0 0 L 500 0 L 500 500 L 0 500 Z " fill="#ffffff"/>
</g>
<clipPath id="cp2">
<path transform="matrix(.6666666,0,0,.6666666,0,0)" d="M 0 0 L 1562.5 0 L 1562.5 1562.5 L 0 1562.5 Z "/>
</clipPath>
<g clip-path="url(#cp2)">
<clipPath id="cp3">
<path transform="matrix(.6666666,0,0,.6666666,0,0)" d="M 0 0 L 1562.5 0 L 1562.5 1562.5 L 0 1562.5 Z "/>
</clipPath>
<g clip-path="url(#cp3)">
<clipPath id="cp4">
<path transform="matrix(.6666666,0,0,.6666666,0,0)" d="M 112.30805 113.62853 L 1449.8081 113.62853 L 1449.8081 1451.1286 L 112.30805 1451.1286 Z "/>
</clipPath>
<g clip-path="url(#cp4)">
<clipPath id="cp5">
<path transform="matrix(.6666666,0,0,.6666666,0,0)" d="M 112.30805 113.62853 L 1450.1499 113.62853 L 1450.1499 1451.4703 L 112.30805 1451.4703 Z "/>
</clipPath>
<g clip-path="url(#cp5)">
<clipPath id="cp6">
<path transform="matrix(.6666666,0,0,.6666666,0,0)" d="M 781.22897 113.62853 C 411.79414 113.62853 112.30805 413.11463 112.30805 782.54946 C 112.30805 1151.9843 411.79414 1451.4703 781.22897 1451.4703 C 1150.6638 1451.4703 1450.1499 1151.9843 1450.1499 782.54946 C 1450.1499 413.11463 1150.6638 113.62853 781.22897 113.62853 Z "/>
</clipPath>
<g clip-path="url(#cp6)">
<path transform="matrix(2.0833336,0,0,2.0833336,74.87203,75.75235)" stroke-width="2" stroke-linecap="butt" stroke-miterlimit="4" stroke-linejoin="miter" fill="none" stroke="#000000" d="M 214.05469 0 C 95.83555 0 0 95.83555 0 214.05469 C 0 332.27384 95.83555 428.10939 214.05469 428.10939 C 332.27384 428.10939 428.10939 332.27384 428.10939 214.05469 C 428.10939 95.83555 332.27384 0 214.05469 0 Z "/>
</g>
</g>
</g>
</g>
</g>
<clipPath id="cp7">
<path transform="matrix(.6666666,0,0,.6666666,0,0)" d="M 0 0 L 1562.5 0 L 1562.5 1562.5 L 0 1562.5 Z "/>
</clipPath>
<g clip-path="url(#cp7)">
<clipPath id="cp8">
<path transform="matrix(.6666666,0,0,.6666666,0,0)" d="M 0 0 L 1562.5 0 L 1562.5 1562.5 L 0 1562.5 Z "/>
</clipPath>
<g clip-path="url(#cp8)">
<clipPath id="cp9">
<path transform="matrix(.6666666,0,0,.6666666,0,0)" d="M 158.37757 153.64972 L 1402.1276 153.64972 L 1402.1276 1397.3997 L 158.37757 1397.3997 Z "/>
</clipPath>
<g clip-path="url(#cp9)">
<clipPath id="cp10">
<path transform="matrix(.6666666,0,0,.6666666,0,0)" d="M 158.37757 153.64972 L 1400.7604 153.64972 L 1400.7604 1396.0325 L 158.37757 1396.0325 Z "/>
</clipPath>
<g clip-path="url(#cp10)">
<clipPath id="cp11">
<path transform="matrix(.6666666,0,0,.6666666,0,0)" d="M 779.569 153.64972 C 436.49446 153.64972 158.37757 431.7666 158.37757 774.8411 C 158.37757 1117.9157 436.49446 1396.0325 779.569 1396.0325 C 1122.6436 1396.0325 1400.7604 1117.9157 1400.7604 774.8411 C 1400.7604 431.7666 1122.6436 153.64972 779.569 153.64972 Z "/>
</clipPath>
<g clip-path="url(#cp11)">
<path transform="matrix(2.0833336,0,0,2.0833336,105.58503,102.433139)" stroke-width="2" stroke-linecap="butt" stroke-miterlimit="4" stroke-linejoin="miter" fill="none" stroke="#000000" d="M 198.78125 0 C 88.9974 0 0 88.9974 0 198.78125 C 0 308.5651 88.9974 397.5625 198.78125 397.5625 C 308.5651 397.5625 397.5625 308.5651 397.5625 198.78125 C 397.5625 88.9974 308.5651 0 198.78125 0 Z "/>
</g>
</g>
</g>
</g>
</g>
<clipPath id="cp12">
<path transform="matrix(.6666666,0,0,.6666666,0,0)" d="M 779.5751 25.961731 L 1450.1868 25.961731 L 1450.1868 451.7107 L 779.5751 451.7107 Z " fill-rule="evenodd"/>
</clipPath>
<g clip-path="url(#cp12)">
<path transform="matrix(0,-1.1087211,1.1087211,0,519.7167,301.14045)" d="M 0 0 L 256 0 L 256 403 L 0 403 Z " fill="#ffffff"/>
</g>
<clipPath id="cp13">
<path transform="matrix(.6666666,0,0,.6666666,0,0)" d="M 112.31067 1040.2277 L 779.5828 1040.2277 L 779.5828 1531.5669 L 112.31067 1531.5669 Z " fill-rule="evenodd"/>
</clipPath>
<g clip-path="url(#cp13)">
<path transform="matrix(0,-1.2795291,1.2795291,0,74.87377,1021.04458)" d="M 0 0 L 256 0 L 256 348 L 0 348 Z " fill="#ffffff"/>
</g>
<clipPath id="cp14">
<path transform="matrix(.6666666,0,0,.6666666,0,0)" d="M 0 0 L 1562.5 0 L 1562.5 1562.5 L 0 1562.5 Z " fill-rule="evenodd"/>
</clipPath>
<g clip-path="url(#cp14)">
<path transform="matrix(2.0833333,0,0,2.0833333,366.8928,927.95449)" stroke-width="1" stroke-linecap="butt" stroke-miterlimit="4" stroke-linejoin="miter" fill="none" stroke="#000000" d="M 0 .5 L 92.68155 .5 "/>
<path transform="matrix(2.0833333,0,0,2.0833333,517.1744,103.22095)" stroke-width="1" stroke-linecap="butt" stroke-miterlimit="4" stroke-linejoin="miter" fill="none" stroke="#000000" d="M -.000000000000014210855 .5 L 92.68155 .5 "/>
</g>
<clipPath id="cp15">
<path transform="matrix(.6666666,0,0,.6666666,0,0)" d="M 946.2943 96.84536 L 1065.0443 96.84536 L 1065.0443 215.59537 L 946.2943 215.59537 Z " fill-rule="evenodd"/>
</clipPath>
<g clip-path="url(#cp15)">
<path transform="matrix(.15878904,0,0,.15878904,630.86288,64.56357)" d="M 250 0 C 225.635 205.882 205.882 225.634 0 250 C .428 250.051 .84900006 250.101 1.276 250.152 L 1.28 250.15599 L 1.2839999 250.15299 C 205.958 274.449 225.686 294.549 250 500 C 274.365 294.11799 294.118 274.365 500 250 C 294.118 225.634 274.365 205.882 250 0 Z "/>
</g>
<clipPath id="cp16">
<path transform="matrix(.6666666,0,0,.6666666,0,0)" d="M 476.67408 1336.7026 L 595.4241 1336.7026 L 595.4241 1455.4526 L 476.67408 1455.4526 Z " fill-rule="evenodd"/>
</clipPath>
<g clip-path="url(#cp16)">
<path transform="matrix(.15878904,0,0,.15878904,317.78269,891.135)" d="M 250 0 C 225.635 205.882 205.882 225.634 0 250 C .428 250.051 .84900006 250.101 1.276 250.152 L 1.28 250.15599 L 1.2839999 250.15299 C 205.958 274.449 225.686 294.549 250 500 C 274.365 294.11799 294.118 274.365 500 250 C 294.118 225.634 274.365 205.882 250 0 Z "/>
</g>
<clipPath id="cp17">
<path transform="matrix(.6666666,0,0,.6666666,0,0)" d="M 865.5774 0 L 1178.0774 0 L 1178.0774 306.25 L 865.5774 306.25 Z " fill-rule="evenodd"/>
</clipPath>
<g clip-path="url(#cp17)">
<path transform="matrix(2.4890483,0,0,2.470664,584.76766,.1684348)" d="M 66.93 33.8 C 66.753177 33.855108 66.62179 33.9647 66.53584 34.128774 C 66.4499 34.292848 66.434619 34.463254 66.49 34.64 C 66.86037 35.819467 67.16416 37.01584 67.401378 38.229116 C 67.63858 39.442396 67.80775 40.66509 67.90887 41.897199 C 68.00998 43.129304 68.04243 44.363218 68.006198 45.598936 C 67.96996 46.834657 67.86529 48.06455 67.69217 49.288618 C 67.51905 50.512689 67.27855 51.72337 66.970668 52.92067 C 66.66278 54.11797 66.28943 55.294488 65.85059 56.45023 C 65.41176 57.60597 64.91016 58.73379 64.34579 59.8337 C 63.781415 60.93361 63.157758 61.99881 62.474824 63.0293 C 61.79189 64.0598 61.053888 65.049228 60.260824 65.99757 C 59.46776 66.945919 58.624528 67.847339 57.73113 68.70183 C 56.83773 69.55631 55.899679 70.3586 54.916978 71.10868 C 53.934278 71.85876 52.913 72.551998 51.853139 73.18839 C 50.79328 73.8248 49.701387 74.40043 48.577455 74.9153 C 47.453519 75.43017 46.30449 75.881099 45.130365 76.26807 C 43.95624 76.65504 42.76427 76.97566 41.554456 77.22996 C 40.344648 77.48425 39.124464 77.67065 37.893899 77.78912 C 36.663339 77.9076 35.430006 77.95745 34.1939 77.93866 C 32.957796 77.91987 31.726548 77.83255 30.500159 77.676708 C 29.27377 77.52086 28.059815 77.297458 26.858294 77.00649 C 25.656773 76.71553 24.475104 76.3588 23.313288 75.93631 C 22.151473 75.51382 21.016686 75.02817 19.908926 74.47937 C 18.801167 73.93057 17.727278 73.32201 16.687258 72.65367 C 15.647237 71.98534 14.647507 71.26136 13.688068 70.48175 C 12.728631 69.70214 11.81541 68.871707 10.948404 67.99045 C 10.081399 67.10919 9.265965 66.182559 8.502102 65.21053 C 7.738239 64.23851 7.030664 63.227109 6.379377 62.17633 C 5.7280895 61.12555 5.1371119 60.041879 4.6064445 58.925317 C 4.075777 57.808755 3.6086968 56.6662 3.2052038 55.49765 C 2.8017109 54.3291 2.4642969 53.141775 2.192962 51.935667 C 1.9216269 50.72956 1.7180466 49.512128 1.5822207 48.28336 C 1.4463947 47.054594 1.3791622 45.822084 1.3805231 44.585836 C 1.381884 43.349588 1.4518298 42.11723 1.5903605 40.888765 C 1.7288911 39.6603 1.9351513 38.443319 2.209141 37.237813 C 2.4831308 36.03231 2.8231579 34.84573 3.2292226 33.67807 C 3.635287 32.51041 4.1048815 31.368887 4.638005 30.253497 C 5.1711289 29.138108 5.76449 28.05574 6.4180896 27.006396 C 7.0716888 25.95705 7.7814886 24.947209 8.547489 23.97687 C 9.313491 23.006533 10.130963 22.08169 10.999907 21.202343 C 11.86885 20.322995 12.783897 19.494572 13.745049 18.717076 C 14.706202 17.939579 15.707522 17.21781 16.749012 16.55177 C 17.790503 15.885726 18.865729 15.279525 19.974694 14.733164 C 21.083659 14.186801 22.219511 13.703653 23.382256 13.283721 C 24.544997 12.863787 25.727448 12.509661 26.929606 12.221341 C 28.131764 11.9330229 29.346205 11.712292 30.572934 11.55915 C 31.799662 11.406008 33.031099 11.3214 34.267248 11.305324 C 35.503396 11.289248 36.736616 11.341806 37.966909 11.462998 C 39.1972 11.58419 40.416975 11.773266 41.626226 12.030226 C 42.835474 12.287186 44.026735 12.610444 45.2 13 C 45.37667 13.059793 45.5488 13.048766 45.7164 12.966917 C 45.883996 12.885068 45.998529 12.756095 46.06 12.58 C 46.11644 12.402106 46.10293 12.229696 46.019468 12.06277 C 45.936006 11.895843 45.806184 11.781586 45.63 11.72 C 44.41105 11.316112 43.17346 10.981079 41.917226 10.714904 C 40.66099 10.448729 39.39387 10.253053 38.115865 10.127877 C 36.83786 10.002703 35.556856 9.9488 34.272848 9.966169 C 32.98884 9.98354 31.70976 10.072075 30.435608 10.231774 C 29.161456 10.391475 27.900094 10.621355 26.65152 10.921415 C 25.402949 11.221475 24.174872 11.589861 22.967289 12.026575 C 21.759709 12.46329 20.580079 12.965637 19.428397 13.533616 C 18.276715 14.101595 17.160092 14.731701 16.078526 15.423932 C 14.99696 16.116166 13.957127 16.866251 12.959026 17.67419 C 11.960926 18.48213 11.010719 19.342938 10.108407 20.256613 C 9.206095 21.17029 8.357245 22.131196 7.561857 23.139327 C 6.7664706 24.147458 6.0294549 25.196597 5.3508107 26.28674 C 4.672167 27.376883 4.056083 28.501303 3.5025607 29.660004 C 2.9490376 30.818703 2.4614914 32.004529 2.039922 33.217477 C 1.6183527 34.430429 1.2653623 35.663019 .9809504 36.915246 C .69653859 38.167478 .48246093 39.43162 .33871738 40.707674 C .19497365 41.983728 .122451309 43.263814 .12115029 44.547937 C .119849298 45.832056 .18977767 47.11228 .33093543 48.388624 C .47209317 49.664964 .68360909 50.929536 .9654832 52.18234 C 1.2473574 53.435148 1.5978497 54.66845 2.0169607 55.88225 C 2.4360717 57.096055 2.921214 58.282865 3.472388 59.442686 C 4.0235626 60.6025 4.6373665 61.72817 5.3138 62.819684 C 5.990234 63.9112 6.7251226 64.96183 7.5184657 65.97157 C 8.311809 66.981319 9.15871 67.94394 10.05917 68.859439 C 10.95963 69.77494 11.908091 70.63767 12.9045519 71.44763 C 13.901012 72.25759 14.939322 73.00978 16.019484 73.7042 C 17.099646 74.39863 18.21499 75.031 19.365519 75.60131 C 20.516049 76.17162 21.694659 76.67635 22.901352 77.11551 C 24.108046 77.55468 25.335375 77.92555 26.583338 78.228137 C 27.831299 78.53072 29.092194 78.76316 30.36602 78.92544 C 31.639849 79.08772 32.918748 79.178859 34.202714 79.19882 C 35.48668 79.21879 36.76779 79.16748 38.04605 79.04489 C 39.32431 78.92231 40.591825 78.7292 41.848596 78.46557 C 43.105367 78.201938 44.34363 77.869419 45.5634 77.467998 C 46.78317 77.06658 47.97691 76.59875 49.144624 76.06449 C 50.31233 75.53024 51.4468 74.93287 52.548036 74.27237 C 53.649274 73.61188 54.710477 72.89234 55.731649 72.11377 C 56.752817 71.33519 57.72765 70.50237 58.656145 69.61532 C 59.584638 68.728267 60.461069 67.79245 61.285436 66.80788 C 62.109796 65.823299 62.877004 64.79603 63.587057 63.726076 C 64.29711 62.656126 64.945629 61.550096 65.53261 60.407979 C 66.11958 59.26586 66.6414 58.094717 67.09806 56.89453 C 67.55472 55.694356 67.9434 54.47255 68.2641 53.22912 C 68.5848 51.985685 68.83554 50.728303 69.01633 49.456968 C 69.19712 48.185636 69.30683 46.908197 69.34546 45.624654 C 69.3841 44.341115 69.351428 43.05939 69.24743 41.779485 C 69.14344 40.49958 68.96878 39.229394 68.72345 37.968927 C 68.47813 36.708456 68.16364 35.465478 67.78 34.24 C 67.722667 34.062505 67.611179 33.93088 67.445529 33.84513 C 67.27987 33.75938 67.10803 33.74434 66.93 33.8 Z "/>
<path transform="matrix(2.4890483,0,0,2.470664,584.76766,.1684348)" d="M 34.67 33.93 C 35.501768 33.933485 36.321767 34.03348 37.129999 34.23 C 37.305486 34.257085 37.466825 34.220975 37.61402 34.12167 C 37.76122 34.022367 37.855115 33.886285 37.89571 33.713426 C 37.936307 33.54056 37.9128 33.376909 37.825197 33.22246 C 37.737596 33.068017 37.609197 32.963865 37.44 32.91 C 36.529356 32.693475 35.60602 32.583475 34.67 32.579999 C 33.882066 32.579999 33.101705 32.656858 32.328916 32.810575 C 31.55612 32.964288 30.805747 33.19191 30.077794 33.49344 C 29.34984 33.79497 28.658293 34.16461 28.00315 34.60236 C 27.34801 35.04011 26.741866 35.537565 26.184716 36.094717 C 25.627562 36.651868 25.130112 37.258016 24.692362 37.913156 C 24.254609 38.568296 23.884968 39.259843 23.58344 39.987798 C 23.281914 40.71575 23.05429 41.46612 22.900572 42.238916 C 22.746855 43.011705 22.669997 43.792066 22.669999 44.579999 C 22.669997 45.367929 22.746855 46.14829 22.90057 46.921079 C 23.054289 47.693868 23.281912 48.44424 23.583439 49.172197 C 23.884968 49.90015 24.254609 50.591699 24.69236 51.24684 C 25.13011 51.90198 25.627562 52.508127 26.184716 53.06528 C 26.741866 53.622434 27.348011 54.119886 28.003153 54.557634 C 28.658293 54.995386 29.34984 55.365026 30.077795 55.666555 C 30.805748 55.96808 31.55612 56.1957 32.328916 56.34942 C 33.101705 56.50314 33.882066 56.579999 34.67 56.58 C 35.457929 56.579999 36.23829 56.50314 37.01108 56.34942 C 37.78387 56.1957 38.53424 55.96808 39.26219 55.666555 C 39.990148 55.365026 40.681699 54.995386 41.336839 54.557634 C 41.991979 54.119886 42.598127 53.622434 43.155279 53.06528 C 43.71243 52.508127 44.20988 51.90198 44.64763 51.24684 C 45.08538 50.5917 45.45502 49.900156 45.756547 49.1722 C 46.058076 48.444246 46.285699 47.69387 46.43942 46.92108 C 46.59314 46.14829 46.67 45.367929 46.67 44.579999 C 46.672266 43.79884 46.595598 43.025506 46.44 42.26 C 46.40477 42.077299 46.309904 41.934118 46.155389 41.830457 C 46.000875 41.726797 45.832414 41.69331 45.649999 41.73 C 45.4673 41.765226 45.32412 41.860097 45.22046 42.01461 C 45.116796 42.169126 45.08331 42.33759 45.12 42.52 C 45.250734 43.200448 45.317399 43.887117 45.32 44.58 C 45.320653 45.280225 45.25297 45.97378 45.11696 46.660676 C 44.980947 47.34756 44.77921 48.014574 44.511754 48.661706 C 44.244295 49.308835 43.916254 49.92365 43.527639 50.50614 C 43.13902 51.08863 42.6973 51.627599 42.202478 52.123044 C 41.70765 52.618486 41.169237 53.06088 40.58723 53.450223 C 40.005228 53.839567 39.390829 54.168375 38.74403 54.43664 C 38.09723 54.70491 37.430475 54.90748 36.743757 55.044355 C 36.057035 55.18123 35.36356 55.24978 34.663339 55.249998 C 33.96311 55.250215 33.269598 55.182104 32.582796 55.04566 C 31.895993 54.909215 31.229109 54.707059 30.582142 54.439195 C 29.935175 54.17133 29.320569 53.842908 28.738324 53.45393 C 28.156075 53.06495 27.617384 52.622896 27.12225 52.127759 C 26.627114 51.63262 26.185057 51.093935 25.796078 50.511686 C 25.407099 49.929437 25.078679 49.31483 24.810814 48.667867 C 24.54295 48.020898 24.340794 47.354017 24.204348 46.667215 C 24.0679 45.98041 23.999787 45.286897 24.000006 44.58667 C 24.000226 43.88644 24.068772 43.19297 24.205647 42.506254 C 24.342524 41.819536 24.545096 41.15278 24.813364 40.505979 C 25.08163 39.859178 25.410437 39.244775 25.79978 38.66277 C 26.189122 38.08077 26.631516 37.542356 27.126959 37.04753 C 27.622403 36.552705 28.161368 36.11098 28.743859 35.722368 C 29.326348 35.33375 29.94116 35.005716 30.588295 34.738256 C 31.235426 34.470796 31.902438 34.26906 32.589326 34.13304 C 33.27621 33.997026 33.96977 33.929346 34.67 33.93 Z "/>
<path transform="matrix(2.4890483,0,0,2.470664,584.76766,.1684348)" d="M 42.48 23.3 C 42.536108 23.123415 42.52234 22.952456 42.4387 22.787125 C 42.355066 22.621792 42.225496 22.509417 42.05 22.449999 C 39.6556 21.646557 37.1956 21.246558 34.67 21.249999 C 33.857595 21.252423 33.04753 21.29718 32.239805 21.384272 C 31.432078 21.471362 30.631089 21.600308 29.83684 21.771113 C 29.04259 21.941914 28.259404 22.15364 27.487282 22.406296 C 26.71516 22.658949 25.95831 22.951155 25.216729 23.282912 C 24.475144 23.614665 23.752869 23.984162 23.049904 24.391402 C 22.346938 24.798642 21.66711 25.24141 21.010422 25.719704 C 20.353732 26.197995 19.723753 26.709206 19.12049 27.253336 C 18.517228 27.797469 17.943964 28.371558 17.400702 28.975604 C 16.857438 29.579646 16.34713 30.210354 15.869783 30.867732 C 15.392437 31.525109 14.950648 32.20557 14.544418 32.909124 C 14.138188 33.61267 13.769729 34.335477 13.43904 35.077535 C 13.108351 35.819597 12.817235 36.576868 12.565691 37.349355 C 12.314145 38.121835 12.103542 38.90532 11.933883 39.699815 C 11.764222 40.49431 11.636428 41.295484 11.550501 42.103338 C 11.464572 42.911188 11.420978 43.721315 11.419718 44.533723 C 11.418458 45.346128 11.459539 46.156389 11.542962 46.964506 C 11.626383 47.772615 11.751691 48.574178 11.918886 49.36919 C 12.086081 50.164209 12.294251 50.948347 12.543399 51.721609 C 12.792545 52.494867 13.08131 53.253034 13.409696 53.996118 C 13.738081 54.7392 14.104297 55.463148 14.508344 56.167959 C 14.912388 56.87276 15.352063 57.55459 15.827368 58.21344 C 16.302674 58.872297 16.811022 59.504587 17.35241 60.110319 C 17.893797 60.71604 18.465277 61.291906 19.066849 61.83791 C 19.66842 62.383909 20.29681 62.89707 20.952015 63.377408 C 21.607218 63.85773 22.28567 64.302608 22.987366 64.71202 C 23.689064 65.12144 24.410189 65.49318 25.150738 65.82724 C 25.891287 66.16129 26.647229 66.45584 27.418564 66.710887 C 28.189898 66.965938 28.972422 67.18009 29.76614 67.35336 C 30.559855 67.52663 31.360436 67.65805 32.167886 67.74764 C 32.975339 67.83724 33.785264 67.884517 34.597658 67.889469 C 35.410047 67.89442 36.220487 67.85701 37.02897 67.77725 C 37.837453 67.6975 38.639577 67.575839 39.43535 67.412258 C 40.231115 67.248668 41.01619 67.04405 41.79057 66.798419 C 42.564954 66.55279 43.32443 66.26746 44.068994 65.94246 C 44.813558 65.617458 45.539155 65.254528 46.245786 64.853679 C 46.95242 64.452838 47.636243 64.016269 48.29725 63.543954 C 48.958253 63.07164 49.592844 62.566167 50.201025 62.02753 C 50.8092 61.4889 51.387655 60.92004 51.936384 60.320955 C 52.485105 59.721864 53.001115 59.09581 53.484415 58.442796 C 53.96771 57.789785 54.415658 57.11336 54.828264 56.413534 C 55.24086 55.713697 55.615865 54.994268 55.953275 54.25524 C 56.290685 53.516214 56.588666 52.761617 56.847219 51.99145 C 57.105764 51.22128 57.323469 50.43973 57.500337 49.646814 C 57.677206 48.853895 57.812269 48.053918 57.905534 47.246885 C 57.998788 46.439847 58.049734 45.630147 58.058374 44.817785 C 58.067007 44.005426 58.033285 43.194826 57.957208 42.38599 C 57.881124 41.577157 57.763093 40.774488 57.603124 39.97798 C 57.44315 39.181486 57.242109 38.39549 57 37.62 C 56.93106 37.45915 56.817026 37.34232 56.657888 37.269514 C 56.49875 37.196706 56.33579 37.186807 56.169008 37.23981 C 56.002225 37.292818 55.874887 37.394987 55.786985 37.54631 C 55.69908 37.69763 55.67342 37.85886 55.71 38.03 C 55.953947 38.808916 56.153924 39.59896 56.309934 40.400136 C 56.46595 41.20131 56.577035 42.008665 56.643194 42.8222 C 56.709344 43.635744 56.730154 44.45044 56.705629 45.266294 C 56.6811 46.082155 56.611387 46.89413 56.496488 47.702226 C 56.381586 48.51032 56.222204 49.309545 56.01834 50.099897 C 55.814485 50.890256 55.567407 51.666864 55.27711 52.429719 C 54.98681 53.19257 54.655084 53.93696 54.281934 54.66289 C 53.908784 55.38883 53.496515 56.09182 53.04512 56.77187 C 52.593725 57.451913 52.10599 58.104818 51.58193 58.73058 C 51.05786 59.356336 50.500699 59.951089 49.910436 60.51484 C 49.320169 61.07858 48.700448 61.607835 48.051275 62.102605 C 47.402105 62.597375 46.72749 63.054605 46.027429 63.47429 C 45.327363 63.893968 44.606176 64.27351 43.86387 64.61293 C 43.121564 64.95234 42.362718 65.24952 41.587335 65.50447 C 40.811948 65.75942 40.024808 65.970569 39.22592 66.13791 C 38.427038 66.30525 37.621335 66.42775 36.808816 66.50541 C 35.996294 66.58307 35.181974 66.61542 34.365854 66.60244 C 33.549734 66.58946 32.73685 66.53125 31.927212 66.4278 C 31.11757 66.32435 30.316168 66.1763 29.523005 65.98365 C 28.729842 65.791 27.949816 65.55494 27.182929 65.275478 C 26.416039 64.996 25.66702 64.67484 24.935879 64.31201 C 24.204735 63.949178 23.49598 63.546899 22.80961 63.105176 C 22.123242 62.66345 21.463498 62.18501 20.830382 61.669858 C 20.197266 61.1547 19.594685 60.606016 19.02264 60.023794 C 18.450594 59.441568 17.912617 58.829404 17.408707 58.187299 C 16.904797 57.545194 16.438067 56.877119 16.008517 56.183069 C 15.578965 55.489019 15.189247 54.773279 14.83936 54.035848 C 14.489473 53.29842 14.18158 52.543859 13.915679 51.77216 C 13.649777 51.000459 13.427511 50.216394 13.248879 49.419958 C 13.070247 48.623517 12.936353 47.81963 12.847197 47.008295 C 12.75804 46.196954 12.714171 45.38317 12.715591 44.566949 C 12.717012 43.750726 12.763713 42.937105 12.855692 42.12608 C 12.94767 41.315057 13.08436 40.511636 13.265762 39.715826 C 13.447164 38.920015 13.672157 38.136724 13.940743 37.365957 C 14.209328 36.595186 14.519845 35.841699 14.872295 35.10549 C 15.224746 34.36928 15.616952 33.654905 16.048916 32.962358 C 16.480879 32.269804 16.94993 31.603354 17.45607 30.963007 C 17.962212 30.32266 18.502316 29.712372 19.076384 29.132143 C 19.650452 28.55191 20.254937 28.005322 20.889842 27.492373 C 21.524746 26.979424 22.18615 26.503283 22.87405 26.063952 C 23.561949 25.624619 24.272099 25.224806 25.004502 24.864516 C 25.736903 24.504223 26.48703 24.185679 27.254889 23.90888 C 28.022744 23.63208 28.803586 23.398737 29.597413 23.208847 C 30.391243 23.018959 31.193158 22.8737 32.003156 22.773066 C 32.81315 22.672432 33.62623 22.617047 34.442388 22.606913 C 35.258546 22.596777 36.07275 22.631955 36.885 22.712445 C 37.697244 22.792933 38.502515 22.918236 39.30081 23.088353 C 40.09911 23.25847 40.885507 23.472353 41.66 23.73 C 41.831605 23.774279 41.99588 23.755265 42.152833 23.672959 C 42.309785 23.590657 42.41884 23.466338 42.48 23.3 Z "/>
<path transform="matrix(2.4890483,0,0,2.470664,584.76766,.1684348)" d="M 34.21 43.4 C 33.987035 43.607927 33.931745 43.85359 34.04413 44.136987 C 34.15651 44.420385 34.36513 44.56139 34.67 44.56 C 34.85301 44.561838 35.009679 44.498506 35.14 44.370004 L 51.54 28.650002 C 51.799978 29.021973 52.13331 29.30864 52.54 29.510003 C 52.59 29.510003 56.260004 29.680003 59.9 29.680003 C 63.210004 29.680003 66.5 29.550004 67 29.090003 C 67.14 28.960003 80.63 15.630002 80.64 13.870002 C 80.64 11.870002 79.54 11.450002 76.86 11.160002 C 75.49 11.020001 73.69 10.950002 72.11 10.890001 C 71.11 10.890001 69.83 10.810001 69.23 10.750001 C 69.23 10.340001 69.3 9.620001 69.350009 9.02 C 69.55799 7.2809855 69.60466 5.537652 69.490009 3.7900005 C 69.25 1.12 68.81 0 66.85 0 C 65.07 0 51.75 13.52 51.62 13.66 C 50.77 14.59 51.039999 23.880002 51.19 27.119999 L 34.21 43.4 Z M 76.76 12.51 C 79.340007 12.780001 79.340007 13.08 79.340007 13.77 C 78.88 15.19 67.77 26.55 66.19 28 C 64.9 28.43 54.38 28.3 52.99 28.17 C 52.80806 28.03091 52.651395 27.867577 52.52 27.68 L 68.86 12.05 C 69.93681 12.167662 71.016819 12.230994 72.1 12.24 C 73.66 12.3 75.43 12.37 76.76 12.51 Z M 52.670003 14.51 C 54.160005 12.93 65.51 1.8100004 66.83 1.3500004 C 67.61 1.3500004 67.92 1.3500004 68.19 3.9300004 C 68.29042 5.6007854 68.24375 7.2674515 68.05 8.93 C 67.960948 9.650621 67.920948 10.373955 67.93 11.1 L 52.4 26 C 52.31 22.57 52.31 15.56 52.67 14.51 L 52.670003 14.51 Z "/>
</g>
<clipPath id="cp18">
<path transform="matrix(.6666666,0,0,.6666666,0,0)" d="M 0 0 L 1562.5 0 L 1562.5 1562.5 L 0 1562.5 Z " fill-rule="evenodd"/>
</clipPath>
<g clip-path="url(#cp18)">
<g id="Layer-1" data-name="H1">
<g id="Layer-2" data-name="P">
</g>
<symbol id="font_13_57">
<path d="M .18300002 0 L .18300002 .013 C .19833334 .017666668 .20866668 .027666668 .214 .043 C .22000002 .058333335 .223 .086333338 .223 .127 L .223 .684 L .17400001 .684 C .12933333 .684 .09533334 .67700007 .072000008 .66300007 C .048666669 .649 .028333335 .624 .011 .588 L 0 .59000006 L .006000001 .70000007 L .521 .70000007 L .52700009 .59000006 L .51600006 .588 C .49933339 .624 .47933338 .649 .45600004 .66300007 C .4326667 .67700007 .39833335 .684 .35300002 .684 L .30600003 .684 L .30600003 .127 C .30600003 .086333338 .30866669 .058333335 .314 .043 C .32000003 .027666668 .3306667 .017666668 .34600003 .013 L .34600003 0 L .18300002 0 Z "/>
</symbol>
<symbol id="font_13_e4">
<path d="M .38400004 .010000001 C .36400006 .010000001 .354 .020000002 .35400004 .040000004 L .35400004 .22000002 C .344 .17933335 .32833336 .14233335 .307 .109000008 C .28566668 .07566667 .2606667 .049000008 .23200003 .029000003 C .20400001 .009666667 .17333335 0 .14000002 0 C .11533335 0 .09233335 .0050000005 .07100001 .015000001 C .049666674 .025 .032333334 .039666669 .019000002 .059000005 C .006333334 .07833333 0 .10233334 0 .13100001 C 0 .16566669 .010333333 .194 .031 .21600002 C .051666667 .23800002 .079 .256 .113000009 .27 C .14766668 .284 .18466668 .29633335 .224 .307 L .35400004 .342 C .35133339 .3906667 .33800004 .42633335 .314 .449 C .29000003 .47233335 .2566667 .48400007 .21400002 .48400004 C .18400002 .48400007 .15466668 .4766667 .12600002 .462 C .09800001 .44800005 .07133334 .4256667 .046 .395 L .037000006 .403 C .06566667 .43833337 .09800001 .466 .13400002 .486 C .17066668 .50666669 .21066667 .517 .254 .517 C .3146667 .517 .35933338 .501 .388 .469 C .41666667 .43766669 .43100003 .39366666 .43100003 .337 L .43100003 .13700001 C .43100003 .09633333 .4336667 .068333338 .43900005 .053000004 C .44500003 .037666669 .4556667 .027666668 .47100006 .023000002 L .47100006 .010000001 L .38400004 .010000001 M .075 .15900001 C .075 .12633334 .08466667 .10133333 .10400002 .084 C .12400001 .06733333 .14833336 .059000005 .17700002 .059000005 C .20366669 .059000005 .22766668 .06633333 .24900002 .081 C .271 .09633333 .28966669 .116000007 .305 .14000002 C .32033334 .16400002 .33233337 .19000001 .34100003 .21800001 C .34966669 .24599999 .354 .273 .35400004 .299 L .35400004 .327 L .35400004 .329 L .22800002 .29500003 C .20333334 .28833334 .17900002 .27933333 .15500002 .268 C .13166668 .25733335 .112333338 .24333334 .097 .22600001 C .082333337 .20866668 .075 .18633335 .075 .15900001 Z "/>
</symbol>
<symbol id="font_13_135">
<path d="M .19100002 0 C .15100001 0 .11466668 .0050000005 .082 .015000001 C .05 .025 .02566667 .035333337 .009000003 .046 L 0 .16700001 L .009000003 .16900002 C .030333339 .12166667 .058333339 .08433334 .09300001 .057 C .12766667 .030333335 .16766668 .016666668 .21300002 .016 C .24433334 .016 .27 .024333334 .29000003 .041 C .31066669 .058333339 .321 .081 .321 .109000008 C .321 .133 .314 .15233334 .3 .16700001 C .2866667 .18166667 .2686667 .19366668 .24600002 .20300001 C .22400002 .21233334 .2 .22100002 .17400001 .22900002 C .14266669 .23900002 .11466667 .24933334 .09 .26000003 C .06533334 .27133335 .046000005 .286 .032 .30400003 C .018000003 .32200004 .011000004 .34600006 .011000004 .37600003 C .011000004 .41533337 .026666671 .44833336 .058000003 .47500003 C .09 .50233337 .135 .51600006 .19300002 .51600006 C .22566669 .51600006 .2556667 .513 .28300003 .507 C .31100003 .5016667 .33266668 .49566666 .34800003 .48900003 L .35200004 .38700003 L .342 .38500003 C .326 .421 .303 .44966666 .27300004 .47100003 C .24300003 .49233333 .21033335 .503 .17500001 .503 C .14100002 .503 .113666679 .49533335 .09300001 .48000003 C .07300001 .4646667 .06300001 .44433335 .06300001 .41900004 C .06300001 .39833335 .06933334 .381 .082 .367 C .09533334 .35300002 .11266669 .341 .13400002 .33100004 C .15600002 .3216667 .18 .31266669 .20600002 .30400003 C .22533335 .298 .2446667 .29133336 .26400004 .284 C .28400005 .27733336 .30200003 .26866669 .31800003 .25800003 C .3346667 .24800003 .34800003 .23466669 .358 .21800001 C .36866669 .202 .37399999 .18133335 .374 .156 C .37399999 .128 .367 .102000009 .35300002 .07800001 C .3396667 .05466667 .31933335 .036000004 .29200004 .022 C .26466669 .008 .23100002 .0006666668 .19100002 0 Z "/>
</symbol>
<symbol id="font_13_117">
<path d="M 0 0 L 0 .013 C .015333335 .017666668 .025666669 .027666668 .031000004 .043 C .037000006 .058333335 .040000008 .086333338 .040000008 .127 L .040000008 .657 C .040000008 .6803334 .038333339 .6976667 .035000005 .70900008 C .032333338 .721 .028000003 .7296667 .022000004 .735 C .01666667 .7403334 .009333335 .74500009 0 .749 L 0 .76000007 L .10900001 .808 L .118 .80100008 L .118 .21700001 L .29200004 .384 C .3246667 .416 .344 .441 .35000003 .45900003 C .35600005 .47700004 .35333336 .48833338 .342 .49300004 L .342 .5 L .46 .5 L .46 .48700003 C .44533337 .48233334 .42866669 .47566668 .41000004 .467 C .39133335 .45833335 .36733339 .44000004 .33800004 .41200004 L .266 .342 L .38300003 .13100001 C .40233336 .09633335 .4206667 .068 .43800003 .046000005 C .45533339 .024666667 .47533337 .013333333 .49800004 .012 L .49800004 0 L .43300004 0 C .4083334 0 .38633336 .008666667 .367 .026 C .34833337 .044 .32666669 .075333338 .30200003 .120000008 L .21100001 .289 L .118 .19900002 L .118 .127 C .118 .086333338 .12066666 .058333335 .126 .043 C .13200002 .027666668 .14266669 .017666668 .158 .013 L .158 0 L 0 0 Z "/>
</symbol>
<use xlink:href="#font_13_57" transform="matrix(191.66666,0,0,-191.66666,328.48213,461.71397)"/>
<use xlink:href="#font_13_e4" transform="matrix(191.66666,0,0,-191.66666,439.45713,463.6306)"/>
<use xlink:href="#font_13_135" transform="matrix(191.66666,0,0,-191.66666,541.04049,463.43898)"/>
<use xlink:href="#font_13_117" transform="matrix(191.66666,0,0,-191.66666,626.71548,461.71397)"/>
</g>
<g id="Layer-1" data-name="H1">
<g id="Layer-2" data-name="P">
</g>
<symbol id="font_14_54">
<path d="M .3516667 1.0830001 L .3516667 1.0830001 C .3716667 1.0770002 .38500009 1.0610001 .3916667 1.0350001 C .3983334 1.0096668 .39733339 .9800001 .3886667 .9460001 C .37866674 .9093334 .36166669 .8773334 .3376667 .8500001 C .31433336 .8226667 .29200004 .80033347 .2706667 .78300008 C .2446667 .7616667 .21600002 .74300006 .1846667 .72700008 C .17400003 .6850001 .16300003 .6383334 .15166669 .5870001 C .14033336 .5350001 .12900003 .48200009 .117666687 .42800007 C .10633335 .37333337 .095666687 .3203334 .08566669 .26900006 C .07566669 .21700005 .066666688 .16933339 .058666685 .12600005 C .050000013 .082000058 .043333349 .045333387 .03866668 .016000033 C .03666668 .005333384 .030333348 .000000059604648 .01966668 .000000059604648 C .018333348 .000000059604648 .01733335 .000000059604648 .01666668 .000000059604648 C .011333346 .0006667177 .007333348 .00333337 .004666686 .008000016 C .001333346 .012000044 .000000009934108 .01666671 .00066667798 .022000015 C .006000012 .060000045 .013000014 .10500006 .021666684 .15700007 C .030333348 .20900005 .040000015 .26533339 .050666684 .32600007 C .06066668 .38600008 .07133335 .44766674 .08266668 .51100006 C .09333334 .57433339 .10433335 .6366667 .11566669 .6980001 C .10766669 .6953334 .099666688 .6930001 .09166668 .69100007 C .08633336 .68900009 .08133335 .68933346 .07666668 .6920001 C .07200002 .6946668 .06900001 .69866678 .06766669 .70400008 C .06633335 .7093334 .06700002 .71433338 .06966668 .7190001 C .07233335 .7236667 .07633335 .72666677 .081666689 .72800007 C .09500002 .73133346 .10866669 .73600009 .12266669 .7420001 C .12600002 .76000007 .12933336 .77766677 .13266669 .7950001 C .13600002 .8123334 .13900002 .8293335 .14166668 .8460001 C .15100003 .8986667 .1596667 .947 .16766669 .99100008 C .17566669 1.0356668 .18200004 1.0723335 .1866667 1.1010001 C .19200003 1.1303334 .19466669 1.1470001 .19466669 1.151 C .19466669 1.1630001 .20066668 1.1693335 .21266669 1.1700001 C .21800001 1.1706668 .2226667 1.1690002 .22666669 1.1650001 C .2306667 1.1616668 .23300004 1.1573334 .23366669 1.1520001 C .2336667 1.1506667 .23300003 1.146 .23166669 1.1380001 C .23100002 1.1300001 .22900003 1.1166668 .2256667 1.098 C .22233336 1.0793334 .21733336 1.0523334 .21066669 1.0170001 C .20466669 .98166677 .19666668 .9360001 .1866667 .8800001 C .20466669 .93133339 .22200002 .97133347 .23866669 1.0000001 C .256 1.0293335 .272 1.0500001 .2866667 1.062 C .30133338 1.0746667 .31400005 1.0816668 .32466669 1.0830001 C .33600006 1.085 .34500004 1.085 .3516667 1.0830001 M .3516667 .9560001 L .3516667 .9560001 C .35833336 .9820001 .35966669 1.0030001 .3556667 1.019 C .3523334 1.0350001 .34733335 1.0440002 .3406667 1.0460001 C .34000004 1.0466668 .33900003 1.047 .3376667 1.047 C .33233337 1.047 .3236667 1.042 .3116667 1.0320001 C .30033339 1.0226668 .28666673 1.0046668 .2706667 .97800007 C .25533334 .9520001 .23900002 .9133334 .2216667 .8620001 C .21500004 .84200009 .20700002 .81400009 .19766669 .77800008 C .2336667 .80000016 .26600004 .82633349 .2946667 .8570001 C .32333336 .88766679 .34233336 .92066678 .3516667 .9560001 Z "/>
</symbol>
<symbol id="font_14_59">
<path d="M .41233335 .259 L .41233335 .259 C .41633336 .25633336 .419 .25233338 .42033334 .24700001 C .42166666 .24166668 .421 .237 .41833336 .23300001 C .41300003 .22433333 .40433336 .21100001 .39233334 .193 C .381 .17500001 .367 .15500002 .35033334 .133 C .33433334 .11166667 .317 .090666677 .29833336 .07 C .28033335 .05 .26233334 .033333336 .24433334 .02 C .22633334 .0066666665 .20966669 0 .19433335 0 C .18900001 0 .18433334 .0009999996 .18033335 .0029999987 C .16366668 .009 .15300001 .024333334 .14833334 .049000004 C .14433335 .07366667 .14600002 .10933334 .15333334 .156 C .14466667 .14466667 .13533335 .133 .12533334 .12100001 C .11533334 .109000008 .10466667 .098 .09333334 .088 C .076000008 .07333333 .061333334 .06733333 .049333339 .07 C .037333337 .07266667 .029333333 .076 .025333334 .08 C .013333335 .089999999 .006000001 .105 .0033333339 .125 C .00000000062088176 .14566668 .0010000008 .16833334 .0063333346 .193 C .011000001 .21833335 .020000002 .24266668 .033333336 .266 C .036000004 .2706667 .040000004 .27366666 .045333338 .275 C .05066667 .27633334 .05566667 .27566669 .060333339 .273 C .065000008 .27033336 .067999999 .26633335 .06933334 .261 C .07066667 .25633336 .07 .25166667 .06733333 .24700001 C .055333336 .227 .04733334 .20700002 .043333338 .187 C .039333337 .16766668 .038000004 .15100001 .039333337 .13700001 C .041333338 .123 .044666668 .114 .049333339 .11 C .052000006 .108 .055333336 .10833334 .05933334 .111 C .064 .11433334 .067 .11633334 .068333338 .117 C .081 .12833333 .093 .14133334 .10433334 .156 C .115666668 .17066668 .12533334 .18400002 .13333334 .19600001 C .14400001 .21066667 .15266668 .22133334 .15933335 .228 C .16666667 .23533334 .17500001 .237 .18433334 .23300001 C .19366668 .22966667 .19833334 .22233333 .19833334 .21100001 C .19833334 .19966668 .19666668 .18433334 .19333335 .165 C .18666667 .12633334 .18366666 .09800001 .18433334 .08 C .185 .06266666 .18666668 .051333336 .18933335 .046 C .19200002 .041333334 .19366668 .039 .19433335 .039 C .20233333 .03566667 .22433333 .051333339 .26033334 .086 C .29633335 .12133333 .33800004 .177 .38533334 .25300003 C .388 .25766669 .392 .26033334 .39733333 .261 C .40266667 .26233337 .40766669 .2616667 .41233335 .259 Z "/>
</symbol>
<symbol id="font_14_50">
<path d="M .395 1.4020001 L .395 1.4020001 C .4036667 1.3893334 .4036667 1.3636669 .395 1.325 C .387 1.2863335 .37000004 1.2383334 .34400005 1.181 C .31800003 1.1243334 .28333334 1.0613334 .24000003 .99200007 C .23933335 .9913334 .2386667 .9906667 .23800002 .99000009 C .22066669 .9193334 .20333334 .84733346 .18600002 .77400007 C .16933334 .7006667 .15333335 .6286667 .13800001 .558 C .12266668 .4873334 .10866668 .421 .09600001 .35900004 C .08333334 .29633338 .072666678 .2406667 .06400001 .19200003 C .05466668 .14333336 .048000009 .10433335 .044000009 .07500002 C .044666679 .07500002 .04533334 .07500002 .046000009 .07500002 C .05133334 .07300002 .055333344 .06966669 .05800001 .06500003 C .060000007 .06033336 .060000007 .055333359 .05800001 .050000013 C .053333343 .03733335 .048666676 .026000014 .044000009 .016000003 C .038666674 .005333334 .031666675 0 .02300001 0 C .02100001 0 .018666678 .00033333899 .01600001 .0010000169 C .010000008 .003000011 .005666673 .0073333384 .003000006 .013999999 C .00033333899 .020000002 .000000004967054 .032666673 .002000004 .052000017 C .004000008 .07066668 .008333343 .099666688 .015000008 .13900003 C .027000009 .21100003 .045000007 .30500005 .069000009 .42100004 C .08633334 .50233337 .10433334 .58500006 .12300001 .669 C .14233335 .7536667 .16133334 .83500006 .18 .91300007 C .19866669 .9916668 .21666669 1.0630001 .23400001 1.1270001 C .23733336 1.1396668 .24233336 1.1573335 .24900002 1.1800001 C .25566668 1.2026666 .26333336 1.227 .272 1.253 C .28066669 1.279 .29033337 1.304 .301 1.3280001 C .3116667 1.3520001 .32266668 1.3716668 .33400003 1.3870001 C .34533335 1.403 .35666669 1.4120001 .36800004 1.414 C .37933336 1.416 .38833336 1.4120001 .395 1.4020001 M .273 1.1240001 L .273 1.1240001 C .30500005 1.184 .32733337 1.2340001 .34000004 1.274 C .35333336 1.3140001 .36100004 1.343 .36300005 1.3610001 C .3536667 1.3476668 .34100006 1.3223335 .32500003 1.2850001 C .30900003 1.2483333 .29166667 1.1946668 .273 1.1240001 Z "/>
</symbol>
<symbol id="font_14_57">
<path d="M .42933337 .61800006 L .42933337 .61800006 C .43333338 .6146667 .4356667 .6103334 .43633337 .605 C .43700005 .59966668 .43533335 .595 .43133337 .591 C .41200004 .5683334 .3906667 .54333338 .36733336 .51600006 C .344 .48866669 .321 .462 .29833336 .43600003 C .27633337 .41 .25733338 .3876667 .24133334 .36900003 C .22533334 .34966669 .21466668 .3366667 .20933335 .33 C .19800002 .31533338 .18699999 .30100004 .17633334 .28700004 C .18500002 .24833335 .18566668 .21200001 .17833334 .17800002 C .17166668 .14333336 .16000001 .11266669 .14333335 .086000028 C .12733335 .059333344 .110333349 .038666678 .09233333 .024000019 C .07366667 .008000006 .056333335 0 .040333336 0 C .030333335 0 .022 .0033333402 .015333334 .01000002 C .004 .020666689 0 .03666668 .0033333339 .058 C .007333333 .07866668 .016 .102333348 .029333335 .12900001 C .04266667 .15566668 .058666666 .18333335 .07733333 .21200003 C .09600001 .24066669 .11500001 .26833336 .13433334 .29500003 C .13100001 .307 .12633334 .31933335 .120333347 .33200003 C .11433334 .344 .10733334 .35633336 .09933333 .36900003 C .072 .41033338 .048666669 .44900004 .029333335 .485 C .0106666679 .5216667 .0020000004 .555 .0033333339 .58500006 C .0066666665 .64033338 .03133333 .6816667 .07733333 .70900008 C .09600001 .7203334 .11566668 .72700008 .13633335 .72900006 C .15700002 .731 .17600002 .728 .19333335 .72 C .19800002 .7173334 .20100002 .7133334 .20233335 .70800009 C .20433335 .7033334 .20433335 .69866678 .20233335 .694 C .19966668 .6893334 .19566669 .68600007 .19033335 .684 C .18566668 .6826667 .18100001 .6830001 .17633334 .68500009 C .15233334 .6963334 .126 .6933333 .09733334 .676 C .06266668 .65533336 .04433334 .6243334 .042333336 .58300009 C .041 .55833336 .049333335 .52933338 .06733334 .49600006 C .08533334 .46266673 .10666666 .4276667 .13133334 .39100004 C .14400001 .37166668 .15433334 .352 .16233334 .33200003 C .16766668 .33866669 .17333335 .34600006 .17933335 .35400004 C .18466668 .36066667 .19533335 .37366668 .21133335 .39300005 C .228 .41233338 .24733335 .43500004 .26933337 .46100004 C .29133336 .48700009 .314 .5136667 .33733336 .541 C .36133338 .5683333 .38300003 .59333339 .40233336 .61600008 C .40566669 .62000009 .41 .62233337 .41533337 .623 C .4206667 .6236667 .42533336 .62200006 .42933337 .61800006 M .10433334 .09500003 L .10433334 .09500003 C .109000008 .102333348 .11466668 .113000009 .121333349 .127 C .128 .14033334 .13366668 .15700002 .13833335 .17700002 C .14366667 .19633335 .14533334 .21800001 .14333335 .24200003 C .112666677 .19866669 .08966667 .16266668 .07433334 .134 C .059666676 .10533335 .05 .08366668 .045333338 .069000009 C .041333338 .05366667 .040000004 .043666673 .041333338 .039000006 C .046000005 .039000006 .05433334 .04333334 .06633334 .052000017 C .07833333 .06066669 .091 .075000029 .10433334 .09500003 Z "/>
</symbol>
<symbol id="font_14_49">
<path d="M .3656667 .27600003 L .3656667 .27600003 C .37033335 .27333335 .37300004 .26933334 .37366668 .264 C .37433336 .25866667 .37333334 .254 .37066669 .25 C .33133335 .19533335 .29533337 .15000002 .26266668 .11400001 C .23000002 .07866667 .19733334 .049333339 .16466668 .026000003 C .14 .008666667 .115666668 0 .09166667 0 C .07300001 0 .056666674 .0050000005 .042666668 .015000001 C .033333336 .021666669 .024333334 .03366667 .015666668 .051000004 C .006333334 .06766667 .0013333336 .09200001 .0006666668 .124000009 C 0 .15666668 .008 .19933336 .024666667 .25200004 L .024666667 .25300003 C .044666668 .317 .067999999 .36566667 .09466667 .39900003 C .122 .433 .14533334 .45033337 .16466668 .45100004 C .18000002 .45166669 .19000001 .44500003 .19466669 .43100003 C .20200002 .41166667 .19333335 .38400004 .16866668 .34800003 C .14400001 .31266669 .10766667 .275 .05966667 .23500002 C .045 .18833335 .038000004 .15166667 .03866667 .125 C .039333334 .099 .043 .080000009 .04966667 .068 C .056333338 .056666674 .061666669 .049333335 .06566667 .046000005 C .085666667 .03133334 .11133333 .035333337 .14266667 .058000003 C .17333335 .079333338 .20433335 .107 .23566668 .141 C .26700003 .17566668 .30133335 .21933334 .33866669 .272 C .342 .276 .34633336 .27833335 .35166667 .279 C .357 .28033338 .36166669 .27933336 .3656667 .27600003 M .15766669 .409 L .15766669 .409 C .15033335 .40433336 .14033334 .39433337 .12766667 .379 C .115 .36433337 .102 .34266673 .08866667 .314 C .11266667 .33733336 .12966667 .35700003 .13966668 .37300004 C .14966668 .3896667 .15566668 .40166668 .15766669 .409 Z "/>
</symbol>
<use xlink:href="#font_14_54" transform="matrix(191.66666,0,0,-191.66666,352.61085,781.5486)" fill="#ff5757"/>
<use xlink:href="#font_14_59" transform="matrix(191.66666,0,0,-191.66666,434.3247,653.32357)" fill="#ff5757"/>
<use xlink:href="#font_14_50" transform="matrix(191.66666,0,0,-191.66666,486.1386,734.2069)" fill="#ff5757"/>
<use xlink:href="#font_14_57" transform="matrix(191.66666,0,0,-191.66666,537.6331,719.64028)" fill="#ff5757"/>
<use xlink:href="#font_14_49" transform="matrix(191.66666,0,0,-191.66666,606.56918,655.24026)" fill="#ff5757"/>
</g>
<g id="Layer-1" data-name="P">
<g id="Layer-2" data-name="P">
</g>
<symbol id="font_15_28">
<path d="M .398 .68700006 C .398 .69566676 .40233336 .70000007 .41099999 .70000007 L .456 .70000007 C .4646667 .70000007 .469 .69566676 .469 .68700006 L .469 .013 C .469 .0043333338 .4646667 0 .456 0 L .41099999 0 C .40233336 0 .398 .0043333338 .398 .013 L .398 .316 C .398 .31933335 .39633335 .321 .393 .321 L .076 .321 C .07266667 .321 .071 .31933335 .071 .316 L .071 .013 C .071 .0043333338 .06666667 0 .058000007 0 L .013000004 0 C .0043333347 0 0 .0043333338 0 .013 L 0 .68700006 C 0 .69566676 .0043333347 .70000007 .013000004 .70000007 L .058000007 .70000007 C .06666667 .70000007 .071 .69566676 .071 .68700006 L .071 .388 C .071 .38466669 .07266667 .38300003 .076 .38300003 L .393 .38300003 C .39633335 .38300003 .398 .38466669 .398 .388 L .398 .68700006 Z "/>
</symbol>
<symbol id="font_15_1a">
<path d="M .45300005 .651 C .45300005 .6423333 .4486667 .638 .44000004 .638 L .076 .638 C .07266667 .638 .071 .63633337 .071 .633 L .071 .388 C .071 .38466669 .07266667 .38300003 .076 .38300003 L .33 .38300003 C .33866669 .38300003 .34300003 .37866668 .343 .37 L .343 .33400003 C .34300003 .32533337 .33866669 .321 .33 .321 L .076 .321 C .07266667 .321 .071 .31933335 .071 .316 L .071 .067 C .071 .06366667 .07266667 .062000004 .076 .062000004 L .44000004 .062000004 C .4486667 .062000004 .45300005 .05766667 .45300005 .049000004 L .45300005 .013 C .45300005 .0043333338 .4486667 0 .44000004 0 L .013000004 0 C .0043333347 0 0 .0043333338 0 .013 L 0 .68700006 C 0 .69566676 .0043333347 .70000007 .013000004 .70000007 L .44000004 .70000007 C .4486667 .70000007 .45300005 .69566676 .45300005 .68700006 L .45300005 .651 Z "/>
</symbol>
<symbol id="font_15_4">
<path d="M .47533337 0 C .46800003 0 .46333335 .003666667 .46133334 .011000001 L .42133335 .133 C .42 .13566667 .41833333 .13700001 .41633336 .13700001 L .11833335 .13700001 C .11633334 .13700001 .11466667 .13566667 .11333334 .133 L .07433334 .011000001 C .07233334 .003666667 .06766667 0 .060333335 0 L .0123333339 0 C .0076666676 0 .0043333347 .0013333334 .0023333356 .004 C .000333334 .0066666675 0 .010333334 .0013333336 .015000001 L .22133333 .689 C .22333335 .6963334 .228 .70000007 .23533336 .70000007 L .29933334 .70000007 C .30666668 .70000007 .31133334 .6963334 .31333334 .689 L .5343334 .015000001 C .5350001 .013666667 .5353334 .012000001 .5353334 .010000001 C .5353334 .007333333 .5340001 .0050000005 .5313334 .003 C .52933338 .001 .5266667 0 .5233334 0 L .47533337 0 M .13533333 .201 C .13466667 .19700001 .136 .19500001 .13933334 .19500001 L .39633335 .19500001 C .40033333 .19500001 .40166668 .19700001 .40033335 .201 L .27033336 .61 C .26966668 .61266669 .26866666 .614 .26733334 .614 C .266 .614 .26500003 .61266669 .26433335 .61 L .13533333 .201 Z "/>
</symbol>
<symbol id="font_15_4c">
<path d="M .41099999 0 C .40366666 0 .39833335 .0033333337 .395 .010000001 L .24900002 .31800003 C .24766667 .3206667 .24566667 .32200004 .243 .32200004 L .076 .32200004 C .07266667 .32200004 .071 .32033337 .071 .317 L .071 .013 C .071 .0043333338 .06666667 0 .058000007 0 L .013000004 0 C .0043333347 0 0 .0043333338 0 .013 L 0 .688 C 0 .6966667 .0043333347 .70100006 .013000004 .70100006 L .269 .70100006 C .32633335 .70100006 .3726667 .6833334 .40800003 .648 C .44333337 .61266669 .461 .56633338 .461 .509 C .461 .46233336 .44833336 .42266668 .423 .39000003 C .39833335 .358 .36433337 .337 .321 .32700003 C .31766669 .32633335 .3166667 .32433335 .31800003 .321 L .46700005 .015000001 C .46833337 .0123333339 .469 .010333334 .469 .009000001 C .469 .0030000003 .465 0 .457 0 L .41099999 0 M .076 .63900008 C .07266667 .63900008 .071 .6373334 .071 .634 L .071 .384 C .071 .38066665 .07266667 .37900005 .076 .379 L .261 .379 C .29966668 .37900005 .331 .3906667 .35500003 .41400004 C .37900005 .43800006 .391 .46933333 .391 .508 C .391 .5466667 .37900005 .57800009 .35500003 .60200008 C .331 .6266667 .29966668 .63900008 .261 .63900008 L .076 .63900008 Z "/>
</symbol>
<symbol id="font_15_53">
<path d="M .47 .70000007 C .47866667 .70000007 .483 .69566676 .483 .68700006 L .483 .65000006 C .483 .64133337 .47866667 .637 .47 .637 L .278 .637 C .27466668 .637 .273 .63533338 .273 .632 L .273 .013 C .273 .0043333338 .26866666 0 .26 0 L .21500002 0 C .20633334 0 .202 .0043333338 .202 .013 L .202 .632 C .202 .63533338 .20033334 .637 .19700001 .637 L .013 .637 C .0043333338 .637 0 .64133337 0 .65000006 L 0 .68700006 C 0 .69566676 .0043333338 .70000007 .013 .70000007 L .47 .70000007 Z "/>
</symbol>
<symbol id="font_15_10">
<path d="M .35300002 .365 C .349 .363 .349 .36100004 .35300002 .35900004 C .38833333 .34433333 .415 .32266668 .433 .294 C .45166669 .26533333 .461 .23066668 .461 .19000001 C .461 .13000001 .4416667 .083333339 .403 .05 C .365 .016666668 .31466667 0 .252 0 L .013000004 0 C .0043333347 0 0 .0043333338 0 .013 L 0 .68700006 C 0 .69566676 .0043333347 .70000007 .013000004 .70000007 L .245 .70000007 C .30966667 .70000007 .36033336 .684 .397 .652 C .43433336 .62000009 .45300005 .57500007 .45300005 .517 C .45300005 .48033334 .44433335 .44933335 .42700003 .42400003 C .41033338 .3986667 .3856667 .37900005 .35300002 .365 M .076 .638 C .07266667 .638 .071 .63633337 .071 .633 L .071 .395 C .071 .39166669 .07266667 .39000003 .076 .39000003 L .245 .39000003 C .287 .39000003 .32033334 .40100003 .345 .423 C .37033335 .44500003 .38300003 .47433339 .38300003 .51100006 C .38300003 .5496667 .37033335 .58033338 .345 .60300007 C .32033334 .62633338 .287 .638 .245 .638 L .076 .638 M .252 .063 C .294 .063 .32733334 .075 .352 .09900001 C .3773333 .123 .39000003 .15533334 .39000003 .19600001 C .39000003 .23666668 .377 .26900003 .351 .293 C .32566668 .31766669 .29133333 .33 .248 .33 L .076 .33 C .07266667 .33 .071 .32833336 .071 .32500003 L .071 .068 C .071 .064666669 .07266667 .063 .076 .063 L .252 .063 Z "/>
</symbol>
<symbol id="font_15_3">
<path d="M 0 0 Z "/>
</symbol>
<symbol id="font_15_3f">
<path d="M .238 0 C .19066668 0 .149 .009666667 .113 .029000003 C .077 .048333337 .049000008 .075333338 .029 .11000001 C .009666666 .14533334 0 .186 0 .23200001 L 0 .484 C 0 .53000006 .009666666 .57033339 .029 .605 C .049000008 .64033338 .077 .66766676 .113 .68700006 C .149 .70633336 .19066668 .716 .238 .716 C .28533338 .716 .32700003 .70633336 .36300005 .68700006 C .3996667 .66766676 .4276667 .64033338 .44700007 .605 C .46700005 .57033339 .47700004 .53000006 .47700004 .484 L .47700004 .23200001 C .47700004 .186 .46700005 .14533334 .44700007 .11000001 C .4276667 .075333338 .3996667 .048333337 .36300005 .029000003 C .32700003 .009666667 .28533338 0 .238 0 M .238 .061000006 C .2886667 .061000006 .32933335 .07633334 .36 .10700001 C .3906667 .13766669 .40600003 .17833334 .40600003 .22900002 L .40600003 .485 C .40600003 .5356667 .3906667 .57633337 .36 .60700008 C .32933335 .6383334 .2886667 .65400007 .238 .65400007 C .18800001 .65400007 .14766668 .6383334 .117000009 .60700008 C .086333338 .57633337 .071 .5356667 .071 .485 L .071 .22900002 C .071 .17833334 .086333338 .13766669 .117000009 .10700001 C .14766668 .07633334 .18800001 .061000006 .238 .061000006 Z "/>
</symbol>
<symbol id="font_15_24">
<path d="M .452 .651 C .452 .6423333 .44766668 .638 .43900005 .638 L .076 .638 C .07266667 .638 .071 .63633337 .071 .633 L .071 .388 C .071 .38466669 .07266667 .38300003 .076 .38300003 L .329 .38300003 C .33766667 .38300003 .342 .37866668 .342 .37 L .342 .33400003 C .342 .32533337 .33766667 .321 .329 .321 L .076 .321 C .07266667 .321 .071 .31933335 .071 .316 L .071 .013 C .071 .0043333338 .06666667 0 .058000007 0 L .013000004 0 C .0043333347 0 0 .0043333338 0 .013 L 0 .68700006 C 0 .69566676 .0043333347 .70000007 .013000004 .70000007 L .43900005 .70000007 C .44766668 .70000007 .452 .69566676 .452 .68700006 L .452 .651 Z "/>
</symbol>
<use xlink:href="#font_15_28" transform="matrix(30.541666,-.0000000000000037875669,-.0000000000000037875669,-30.541666,370.8059,759.7604)" fill="#545454"/>
<use xlink:href="#font_15_1a" transform="matrix(30.541666,-.0000000000000037875669,-.0000000000000037875669,-30.541666,404.52516,759.7604)" fill="#545454"/>
<use xlink:href="#font_15_4" transform="matrix(30.541666,-.0000000000000037875669,-.0000000000000037875669,-30.541666,434.96665,759.7604)" fill="#545454"/>
<use xlink:href="#font_15_4c" transform="matrix(30.541666,-.0000000000000037875669,-.0000000000000037875669,-30.541666,469.03239,759.7604)" fill="#545454"/>
<use xlink:href="#font_15_53" transform="matrix(30.541666,-.0000000000000037875669,-.0000000000000037875669,-30.541666,499.91157,759.7604)" fill="#545454"/>
<use xlink:href="#font_15_10" transform="matrix(30.541666,-.0000000000000037875669,-.0000000000000037875669,-30.541666,532.5931,759.7604)" fill="#545454"/>
<use xlink:href="#font_15_1a" transform="matrix(30.541666,-.0000000000000037875669,-.0000000000000037875669,-30.541666,565.48788,759.7604)" fill="#545454"/>
<use xlink:href="#font_15_4" transform="matrix(30.541666,-.0000000000000037875669,-.0000000000000037875669,-30.541666,595.9293,759.7604)" fill="#545454"/>
<use xlink:href="#font_15_53" transform="matrix(30.541666,-.0000000000000037875669,-.0000000000000037875669,-30.541666,628.4375,759.7604)" fill="#545454"/>
<use xlink:href="#font_15_3" transform="matrix(30.541666,-.0000000000000037875669,-.0000000000000037875669,-30.541666,658.24807,759.7604)" fill="#545454"/>
<use xlink:href="#font_15_3f" transform="matrix(30.541666,-.0000000000000037875669,-.0000000000000037875669,-30.541666,680.30386,760.0047)" fill="#545454"/>
<use xlink:href="#font_15_24" transform="matrix(30.541666,-.0000000000000037875669,-.0000000000000037875669,-30.541666,713.71798,759.7604)" fill="#545454"/>
<g id="Layer-2" data-name="P">
</g>
<symbol id="font_15_49">
<path d="M .273 .70100006 C .33166669 .70100006 .37866668 .683 .41400004 .647 C .45000003 .61100009 .46800003 .5636667 .468 .505 C .46800003 .44700004 .44966666 .40033333 .413 .365 C .377 .32966668 .32933335 .312 .27 .312 L .076 .312 C .07266667 .312 .071 .31033335 .071 .307 L .071 .013 C .071 .0043333338 .06666667 0 .058000007 0 L .012999997 0 C .004333332 0 0 .0043333338 0 .013 L 0 .688 C 0 .6966667 .004333332 .70100006 .012999997 .70100006 L .273 .70100006 M .26500003 .37100003 C .30433334 .37100003 .33633337 .38300003 .361 .407 C .3856667 .4316667 .398 .46400003 .398 .504 C .398 .5446667 .3856667 .5773334 .361 .60200008 C .33633337 .6266667 .30433334 .63900008 .26500003 .63900008 L .076 .63900008 C .07266667 .63900008 .071 .6373334 .071 .634 L .071 .37600003 C .071 .3726667 .07266667 .37100003 .076 .37100003 L .26500003 .37100003 Z "/>
</symbol>
<symbol id="font_15_16">
<path d="M .013000004 0 C .0043333347 0 0 .0043333338 0 .013 L 0 .68700006 C 0 .69566676 .0043333347 .70000007 .013000004 .70000007 L .24599999 .70000007 C .312 .70000007 .3643333 .6826667 .403 .648 C .44233338 .61333337 .46200005 .56633338 .46200005 .507 L .46200005 .193 C .46200005 .13366668 .44233338 .086666669 .403 .052 C .3643333 .017333335 .312 0 .24599999 0 L .013000004 0 M .071 .067 C .071 .06366667 .07266667 .062000004 .076 .062000004 L .24900002 .062000004 C .29233334 .062000004 .32666669 .07466667 .352 .1 C .37800003 .12533334 .391 .15933335 .391 .202 L .391 .497 C .391 .54033336 .37833334 .5746667 .35300002 .6 C .32766668 .62533339 .293 .638 .24900002 .638 L .076 .638 C .07266667 .638 .071 .63633337 .071 .633 L .071 .067 Z "/>
</symbol>
<symbol id="font_15_56">
<path d="M .238 0 C .19133334 0 .15 .009333334 .114 .028 C .07800001 .046666668 .05000001 .07266667 .030000002 .106000009 C .010000001 .14 0 .17933333 0 .224 L 0 .69500008 C 0 .7036667 .0043333347 .708 .013000004 .70800009 L .058000007 .70800009 C .06666667 .708 .071 .7036667 .071 .69500008 L .071 .22200002 C .071 .17466669 .086333338 .136 .117000009 .106000009 C .14766668 .076666679 .18800001 .062000004 .238 .062000004 C .28800003 .062000004 .32833336 .076666679 .35900004 .106000009 C .3896667 .136 .40500007 .17466669 .40500004 .22200002 L .40500004 .69500008 C .40500007 .7036667 .40933336 .708 .418 .70800009 L .46300004 .70800009 C .4716667 .708 .47600005 .7036667 .47600005 .69500008 L .47600005 .224 C .47600005 .17933333 .46600006 .14 .446 .106000009 C .4266667 .07266667 .39900003 .046666668 .36300005 .028 C .32700003 .009333334 .28533338 0 .238 0 Z "/>
</symbol>
<symbol id="font_15_11">
<path d="M .23500002 0 C .18833335 0 .14733336 .009000001 .11200001 .027000003 C .076666679 .04566667 .049000008 .071666669 .029 .105000007 C .009666666 .139 0 .17800002 0 .22200002 L 0 .49700005 C 0 .54033336 .009666666 .5786667 .029 .61200007 C .049000008 .64533337 .076666679 .671 .11200001 .689 C .14733336 .7076667 .18833335 .717 .23500002 .717 C .28166668 .717 .32266668 .708 .358 .69000008 C .39333336 .6720001 .4206667 .6466667 .44000004 .614 C .46000005 .5813334 .47000007 .54366669 .47000007 .501 C .47000007 .495 .46566675 .49133338 .45700006 .49000005 L .41200004 .48700003 L .40900005 .48700003 C .40633337 .48700003 .40400005 .4876667 .40200005 .48900003 C .4 .49033336 .39900003 .4916667 .39900003 .49300004 L .39900003 .499 C .39900003 .5463334 .38400004 .58400008 .35400004 .61200007 C .32400004 .6406667 .28433336 .65500006 .23500002 .65500006 C .18566668 .65500006 .14600002 .6406667 .116000007 .61200007 C .086 .5833333 .071 .5456667 .071 .499 L .071 .21900001 C .071 .17233335 .086 .13466667 .116000007 .106000009 C .14600002 .07733334 .18566668 .063 .23500002 .063 C .28433336 .063 .32400004 .077 .35400004 .105000007 C .38400004 .13366668 .39900003 .17166668 .39900003 .21900001 C .39900003 .22700002 .40333335 .23066668 .41200004 .23000002 L .45700006 .22800002 C .46566675 .228 .47000007 .22633334 .47000007 .22300002 L .47000007 .21800001 C .47000007 .17466669 .46000005 .13633335 .44000004 .10300001 C .4206667 .07033334 .39333336 .045 .358 .027000003 C .32266668 .009000001 .28166668 0 .23500002 0 Z "/>
</symbol>
<symbol id="font_15_2a">
<path d="M .013000004 0 C .0043333347 0 0 .0043333338 0 .013 L 0 .68700006 C 0 .69566676 .0043333347 .70000007 .013000004 .70000007 L .058000007 .70000007 C .06666667 .70000007 .071 .69566676 .071 .68700006 L .071 .013 C .071 .0043333338 .06666667 0 .058000007 0 L .013000004 0 Z "/>
</symbol>
<symbol id="font_15_5f">
<path d="M .23200001 0 C .22466667 0 .22000002 .003666667 .21800001 .011000001 L .0009999983 .68500009 C .00033333279 .68633338 0 .688 0 .69000008 C 0 .6926667 .0009999996 .695 .0029999987 .697 C .0056666659 .69900009 .008666665 .70000007 .011999998 .70000007 L .06 .70000007 C .06733334 .70000007 .072000008 .6963334 .074 .689 L .256 .108 C .25666667 .105333339 .25766669 .104 .259 .104 C .26033334 .104 .26133336 .105333339 .262 .108 L .444 .689 C .446 .6963334 .45066668 .70000007 .458 .70000007 L .505 .70000007 C .5096667 .70000007 .513 .69866678 .515 .69600006 C .517 .6933334 .5173333 .68966677 .51600006 .68500009 L .297 .011000001 C .295 .003666667 .29033334 0 .283 0 L .23200001 0 Z "/>
</symbol>
<symbol id="font_15_66">
<path d="M .222 0 C .21333333 0 .209 .0043333338 .209 .013 L .209 .30600003 C .209 .30733336 .20833333 .30933336 .207 .31200005 L .0020000004 .683 C .0006666668 .68700006 0 .68933346 0 .69000008 C 0 .6926667 .0010000008 .6946667 .0030000024 .69600006 C .0050000015 .698 .0076666676 .69900009 .011 .69900009 L .059000005 .69900009 C .06633334 .69900009 .07133334 .6960001 .074 .69000008 L .241 .38800005 C .24300002 .3853334 .245 .3853334 .24700001 .38800005 L .41500003 .69000008 C .41833339 .6960001 .42333333 .69900009 .43 .69900009 L .47800002 .69900009 C .48333336 .69900009 .48666669 .6973334 .488 .69400009 C .49 .69133338 .4896667 .6876667 .48700003 .683 L .282 .31200005 C .28066669 .30933336 .28 .30733336 .28 .30600003 L .28 .013 C .28 .0043333338 .27566669 0 .26700003 0 L .222 0 Z "/>
</symbol>
<use xlink:href="#font_15_49" transform="matrix(30.541666,-.0000000000000037875669,-.0000000000000037875669,-30.541666,375.67027,801.42709)" fill="#545454"/>
<use xlink:href="#font_15_4c" transform="matrix(30.541666,-.0000000000000037875669,-.0000000000000037875669,-30.541666,407.71015,801.42709)" fill="#545454"/>
<use xlink:href="#font_15_3f" transform="matrix(30.541666,-.0000000000000037875669,-.0000000000000037875669,-30.541666,439.47508,801.6714)" fill="#545454"/>
<use xlink:href="#font_15_16" transform="matrix(30.541666,-.0000000000000037875669,-.0000000000000037875669,-30.541666,472.88917,801.42709)" fill="#545454"/>
<use xlink:href="#font_15_56" transform="matrix(30.541666,-.0000000000000037875669,-.0000000000000037875669,-30.541666,505.2649,801.6714)" fill="#545454"/>
<use xlink:href="#font_15_11" transform="matrix(30.541666,-.0000000000000037875669,-.0000000000000037875669,-30.541666,538.3733,801.70199)" fill="#545454"/>
<use xlink:href="#font_15_53" transform="matrix(30.541666,-.0000000000000037875669,-.0000000000000037875669,-30.541666,569.7718,801.42709)" fill="#545454"/>
<use xlink:href="#font_15_2a" transform="matrix(30.541666,-.0000000000000037875669,-.0000000000000037875669,-30.541666,602.45327,801.42709)" fill="#545454"/>
<use xlink:href="#font_15_5f" transform="matrix(30.541666,-.0000000000000037875669,-.0000000000000037875669,-30.541666,622.34017,801.42709)" fill="#545454"/>
<use xlink:href="#font_15_2a" transform="matrix(30.541666,-.0000000000000037875669,-.0000000000000037875669,-30.541666,655.8461,801.42709)" fill="#545454"/>
<use xlink:href="#font_15_53" transform="matrix(30.541666,-.0000000000000037875669,-.0000000000000037875669,-30.541666,675.94686,801.42709)" fill="#545454"/>
<use xlink:href="#font_15_66" transform="matrix(30.541666,-.0000000000000037875669,-.0000000000000037875669,-30.541666,706.94857,801.39657)" fill="#545454"/>
</g>
</g>
<clipPath id="cp22">
<path transform="matrix(.6666666,0,0,.6666666,0,0)" d="M 360.7473 1256.226 L 673.2473 1256.226 L 673.2473 1562.476 L 360.7473 1562.476 Z " fill-rule="evenodd"/>
</clipPath>
<g clip-path="url(#cp22)">
<path transform="matrix(-2.4890483,0,0,-2.470664,441.11549,1041.482)" d="M 66.93 33.8 C 66.753177 33.855108 66.62179 33.9647 66.53584 34.128774 C 66.4499 34.292848 66.434619 34.463254 66.49 34.64 C 66.86037 35.819467 67.16416 37.01584 67.401378 38.229116 C 67.63858 39.442396 67.80775 40.66509 67.90887 41.897199 C 68.00998 43.129304 68.04243 44.363218 68.006198 45.598936 C 67.96996 46.834657 67.86529 48.06455 67.69217 49.288618 C 67.51905 50.512689 67.27855 51.72337 66.970668 52.92067 C 66.66278 54.11797 66.28943 55.294488 65.85059 56.45023 C 65.41176 57.60597 64.91016 58.73379 64.34579 59.8337 C 63.781415 60.93361 63.157758 61.99881 62.474824 63.0293 C 61.79189 64.0598 61.053888 65.049228 60.260824 65.99757 C 59.46776 66.945919 58.624528 67.847339 57.73113 68.70183 C 56.83773 69.55631 55.899679 70.3586 54.916978 71.10868 C 53.934278 71.85876 52.913 72.551998 51.853139 73.18839 C 50.79328 73.8248 49.701387 74.40043 48.577455 74.9153 C 47.453519 75.43017 46.30449 75.881099 45.130365 76.26807 C 43.95624 76.65504 42.76427 76.97566 41.554456 77.22996 C 40.344648 77.48425 39.124464 77.67065 37.893899 77.78912 C 36.663339 77.9076 35.430006 77.95745 34.1939 77.93866 C 32.957796 77.91987 31.726548 77.83255 30.500159 77.676708 C 29.27377 77.52086 28.059815 77.297458 26.858294 77.00649 C 25.656773 76.71553 24.475104 76.3588 23.313288 75.93631 C 22.151473 75.51382 21.016686 75.02817 19.908926 74.47937 C 18.801167 73.93057 17.727278 73.32201 16.687258 72.65367 C 15.647237 71.98534 14.647507 71.26136 13.688068 70.48175 C 12.728631 69.70214 11.81541 68.871707 10.948404 67.99045 C 10.081399 67.10919 9.265965 66.182559 8.502102 65.21053 C 7.738239 64.23851 7.030664 63.227109 6.379377 62.17633 C 5.7280895 61.12555 5.1371119 60.041879 4.6064445 58.925317 C 4.075777 57.808755 3.6086968 56.6662 3.2052038 55.49765 C 2.8017109 54.3291 2.4642969 53.141775 2.192962 51.935667 C 1.9216269 50.72956 1.7180466 49.512128 1.5822207 48.28336 C 1.4463947 47.054594 1.3791622 45.822084 1.3805231 44.585836 C 1.381884 43.349588 1.4518298 42.11723 1.5903605 40.888765 C 1.7288911 39.6603 1.9351513 38.443319 2.209141 37.237813 C 2.4831308 36.03231 2.8231579 34.84573 3.2292226 33.67807 C 3.635287 32.51041 4.1048815 31.368887 4.638005 30.253497 C 5.1711289 29.138108 5.76449 28.05574 6.4180896 27.006396 C 7.0716888 25.95705 7.7814886 24.947209 8.547489 23.97687 C 9.313491 23.006533 10.130963 22.08169 10.999907 21.202343 C 11.86885 20.322995 12.783897 19.494572 13.745049 18.717076 C 14.706202 17.939579 15.707522 17.21781 16.749012 16.55177 C 17.790503 15.885726 18.865729 15.279525 19.974694 14.733164 C 21.083659 14.186801 22.219511 13.703653 23.382256 13.283721 C 24.544997 12.863787 25.727448 12.509661 26.929606 12.221341 C 28.131764 11.9330229 29.346205 11.712292 30.572934 11.55915 C 31.799662 11.406008 33.031099 11.3214 34.267248 11.305324 C 35.503396 11.289248 36.736616 11.341806 37.966909 11.462998 C 39.1972 11.58419 40.416975 11.773266 41.626226 12.030226 C 42.835474 12.287186 44.026735 12.610444 45.2 13 C 45.37667 13.059793 45.5488 13.048766 45.7164 12.966917 C 45.883996 12.885068 45.998529 12.756095 46.06 12.58 C 46.11644 12.402106 46.10293 12.229696 46.019468 12.06277 C 45.936006 11.895843 45.806184 11.781586 45.63 11.72 C 44.41105 11.316112 43.17346 10.981079 41.917226 10.714904 C 40.66099 10.448729 39.39387 10.253053 38.115865 10.127877 C 36.83786 10.002703 35.556856 9.9488 34.272848 9.966169 C 32.98884 9.98354 31.70976 10.072075 30.435608 10.231774 C 29.161456 10.391475 27.900094 10.621355 26.65152 10.921415 C 25.402949 11.221475 24.174872 11.589861 22.967289 12.026575 C 21.759709 12.46329 20.580079 12.965637 19.428397 13.533616 C 18.276715 14.101595 17.160092 14.731701 16.078526 15.423932 C 14.99696 16.116166 13.957127 16.866251 12.959026 17.67419 C 11.960926 18.48213 11.010719 19.342938 10.108407 20.256613 C 9.206095 21.17029 8.357245 22.131196 7.561857 23.139327 C 6.7664706 24.147458 6.0294549 25.196597 5.3508107 26.28674 C 4.672167 27.376883 4.056083 28.501303 3.5025607 29.660004 C 2.9490376 30.818703 2.4614914 32.004529 2.039922 33.217477 C 1.6183527 34.430429 1.2653623 35.663019 .9809504 36.915246 C .69653859 38.167478 .48246093 39.43162 .33871738 40.707674 C .19497365 41.983728 .122451309 43.263814 .12115029 44.547937 C .119849298 45.832056 .18977767 47.11228 .33093543 48.388624 C .47209317 49.664964 .68360909 50.929536 .9654832 52.18234 C 1.2473574 53.435148 1.5978497 54.66845 2.0169607 55.88225 C 2.4360717 57.096055 2.921214 58.282865 3.472388 59.442686 C 4.0235626 60.6025 4.6373665 61.72817 5.3138 62.819684 C 5.990234 63.9112 6.7251226 64.96183 7.5184657 65.97157 C 8.311809 66.981319 9.15871 67.94394 10.05917 68.859439 C 10.95963 69.77494 11.908091 70.63767 12.9045519 71.44763 C 13.901012 72.25759 14.939322 73.00978 16.019484 73.7042 C 17.099646 74.39863 18.21499 75.031 19.365519 75.60131 C 20.516049 76.17162 21.694659 76.67635 22.901352 77.11551 C 24.108046 77.55468 25.335375 77.92555 26.583338 78.228137 C 27.831299 78.53072 29.092194 78.76316 30.36602 78.92544 C 31.639849 79.08772 32.918748 79.178859 34.202714 79.19882 C 35.48668 79.21879 36.76779 79.16748 38.04605 79.04489 C 39.32431 78.92231 40.591825 78.7292 41.848596 78.46557 C 43.105367 78.201938 44.34363 77.869419 45.5634 77.467998 C 46.78317 77.06658 47.97691 76.59875 49.144624 76.06449 C 50.31233 75.53024 51.4468 74.93287 52.548036 74.27237 C 53.649274 73.61188 54.710477 72.89234 55.731649 72.11377 C 56.752817 71.33519 57.72765 70.50237 58.656145 69.61532 C 59.584638 68.728267 60.461069 67.79245 61.285436 66.80788 C 62.109796 65.823299 62.877004 64.79603 63.587057 63.726076 C 64.29711 62.656126 64.945629 61.550096 65.53261 60.407979 C 66.11958 59.26586 66.6414 58.094717 67.09806 56.89453 C 67.55472 55.694356 67.9434 54.47255 68.2641 53.22912 C 68.5848 51.985685 68.83554 50.728303 69.01633 49.456968 C 69.19712 48.185636 69.30683 46.908197 69.34546 45.624654 C 69.3841 44.341115 69.351428 43.05939 69.24743 41.779485 C 69.14344 40.49958 68.96878 39.229394 68.72345 37.968927 C 68.47813 36.708456 68.16364 35.465478 67.78 34.24 C 67.722667 34.062505 67.611179 33.93088 67.445529 33.84513 C 67.27987 33.75938 67.10803 33.74434 66.93 33.8 Z "/>
<path transform="matrix(-2.4890483,0,0,-2.470664,441.11549,1041.482)" d="M 34.67 33.93 C 35.501768 33.933485 36.321767 34.03348 37.129999 34.23 C 37.305486 34.257085 37.466825 34.220975 37.61402 34.12167 C 37.76122 34.022367 37.855115 33.886285 37.89571 33.713426 C 37.936307 33.54056 37.9128 33.376909 37.825197 33.22246 C 37.737596 33.068017 37.609197 32.963865 37.44 32.91 C 36.529356 32.693475 35.60602 32.583475 34.67 32.579999 C 33.882066 32.579999 33.101705 32.656858 32.328916 32.810575 C 31.55612 32.964288 30.805747 33.19191 30.077794 33.49344 C 29.34984 33.79497 28.658293 34.16461 28.00315 34.60236 C 27.34801 35.04011 26.741866 35.537565 26.184716 36.094717 C 25.627562 36.651868 25.130112 37.258016 24.692362 37.913156 C 24.254609 38.568296 23.884968 39.259843 23.58344 39.987798 C 23.281914 40.71575 23.05429 41.46612 22.900572 42.238916 C 22.746855 43.011705 22.669997 43.792066 22.669999 44.579999 C 22.669997 45.367929 22.746855 46.14829 22.90057 46.921079 C 23.054289 47.693868 23.281912 48.44424 23.583439 49.172197 C 23.884968 49.90015 24.254609 50.591699 24.69236 51.24684 C 25.13011 51.90198 25.627562 52.508127 26.184716 53.06528 C 26.741866 53.622434 27.348011 54.119886 28.003153 54.557634 C 28.658293 54.995386 29.34984 55.365026 30.077795 55.666555 C 30.805748 55.96808 31.55612 56.1957 32.328916 56.34942 C 33.101705 56.50314 33.882066 56.579999 34.67 56.58 C 35.457929 56.579999 36.23829 56.50314 37.01108 56.34942 C 37.78387 56.1957 38.53424 55.96808 39.26219 55.666555 C 39.990148 55.365026 40.681699 54.995386 41.336839 54.557634 C 41.991979 54.119886 42.598127 53.622434 43.155279 53.06528 C 43.71243 52.508127 44.20988 51.90198 44.64763 51.24684 C 45.08538 50.5917 45.45502 49.900156 45.756547 49.1722 C 46.058076 48.444246 46.285699 47.69387 46.43942 46.92108 C 46.59314 46.14829 46.67 45.367929 46.67 44.579999 C 46.672266 43.79884 46.595598 43.025506 46.44 42.26 C 46.40477 42.077299 46.309904 41.934118 46.155389 41.830457 C 46.000875 41.726797 45.832414 41.69331 45.649999 41.73 C 45.4673 41.765226 45.32412 41.860097 45.22046 42.01461 C 45.116796 42.169126 45.08331 42.33759 45.12 42.52 C 45.250734 43.200448 45.317399 43.887117 45.32 44.58 C 45.320653 45.280225 45.25297 45.97378 45.11696 46.660676 C 44.980947 47.34756 44.77921 48.014574 44.511754 48.661706 C 44.244295 49.308835 43.916254 49.92365 43.527639 50.50614 C 43.13902 51.08863 42.6973 51.627599 42.202478 52.123044 C 41.70765 52.618486 41.169237 53.06088 40.58723 53.450223 C 40.005228 53.839567 39.390829 54.168375 38.74403 54.43664 C 38.09723 54.70491 37.430475 54.90748 36.743757 55.044355 C 36.057035 55.18123 35.36356 55.24978 34.663339 55.249998 C 33.96311 55.250215 33.269598 55.182104 32.582796 55.04566 C 31.895993 54.909215 31.229109 54.707059 30.582142 54.439195 C 29.935175 54.17133 29.320569 53.842908 28.738324 53.45393 C 28.156075 53.06495 27.617384 52.622896 27.12225 52.127759 C 26.627114 51.63262 26.185057 51.093935 25.796078 50.511686 C 25.407099 49.929437 25.078679 49.31483 24.810814 48.667867 C 24.54295 48.020898 24.340794 47.354017 24.204348 46.667215 C 24.0679 45.98041 23.999787 45.286897 24.000006 44.58667 C 24.000226 43.88644 24.068772 43.19297 24.205647 42.506254 C 24.342524 41.819536 24.545096 41.15278 24.813364 40.505979 C 25.08163 39.859178 25.410437 39.244775 25.79978 38.66277 C 26.189122 38.08077 26.631516 37.542356 27.126959 37.04753 C 27.622403 36.552705 28.161368 36.11098 28.743859 35.722368 C 29.326348 35.33375 29.94116 35.005716 30.588295 34.738256 C 31.235426 34.470796 31.902438 34.26906 32.589326 34.13304 C 33.27621 33.997026 33.96977 33.929346 34.67 33.93 Z "/>
<path transform="matrix(-2.4890483,0,0,-2.470664,441.11549,1041.482)" d="M 42.48 23.3 C 42.536108 23.123415 42.52234 22.952456 42.4387 22.787125 C 42.355066 22.621792 42.225496 22.509417 42.05 22.449999 C 39.6556 21.646557 37.1956 21.246558 34.67 21.249999 C 33.857595 21.252423 33.04753 21.29718 32.239805 21.384272 C 31.432078 21.471362 30.631089 21.600308 29.83684 21.771113 C 29.04259 21.941914 28.259404 22.15364 27.487282 22.406296 C 26.71516 22.658949 25.95831 22.951155 25.216729 23.282912 C 24.475144 23.614665 23.752869 23.984162 23.049904 24.391402 C 22.346938 24.798642 21.66711 25.24141 21.010422 25.719704 C 20.353732 26.197995 19.723753 26.709206 19.12049 27.253336 C 18.517228 27.797469 17.943964 28.371558 17.400702 28.975604 C 16.857438 29.579646 16.34713 30.210354 15.869783 30.867732 C 15.392437 31.525109 14.950648 32.20557 14.544418 32.909124 C 14.138188 33.61267 13.769729 34.335477 13.43904 35.077535 C 13.108351 35.819597 12.817235 36.576868 12.565691 37.349355 C 12.314145 38.121835 12.103542 38.90532 11.933883 39.699815 C 11.764222 40.49431 11.636428 41.295484 11.550501 42.103338 C 11.464572 42.911188 11.420978 43.721315 11.419718 44.533723 C 11.418458 45.346128 11.459539 46.156389 11.542962 46.964506 C 11.626383 47.772615 11.751691 48.574178 11.918886 49.36919 C 12.086081 50.164209 12.294251 50.948347 12.543399 51.721609 C 12.792545 52.494867 13.08131 53.253034 13.409696 53.996118 C 13.738081 54.7392 14.104297 55.463148 14.508344 56.167959 C 14.912388 56.87276 15.352063 57.55459 15.827368 58.21344 C 16.302674 58.872297 16.811022 59.504587 17.35241 60.110319 C 17.893797 60.71604 18.465277 61.291906 19.066849 61.83791 C 19.66842 62.383909 20.29681 62.89707 20.952015 63.377408 C 21.607218 63.85773 22.28567 64.302608 22.987366 64.71202 C 23.689064 65.12144 24.410189 65.49318 25.150738 65.82724 C 25.891287 66.16129 26.647229 66.45584 27.418564 66.710887 C 28.189898 66.965938 28.972422 67.18009 29.76614 67.35336 C 30.559855 67.52663 31.360436 67.65805 32.167886 67.74764 C 32.975339 67.83724 33.785264 67.884517 34.597658 67.889469 C 35.410047 67.89442 36.220487 67.85701 37.02897 67.77725 C 37.837453 67.6975 38.639577 67.575839 39.43535 67.412258 C 40.231115 67.248668 41.01619 67.04405 41.79057 66.798419 C 42.564954 66.55279 43.32443 66.26746 44.068994 65.94246 C 44.813558 65.617458 45.539155 65.254528 46.245786 64.853679 C 46.95242 64.452838 47.636243 64.016269 48.29725 63.543954 C 48.958253 63.07164 49.592844 62.566167 50.201025 62.02753 C 50.8092 61.4889 51.387655 60.92004 51.936384 60.320955 C 52.485105 59.721864 53.001115 59.09581 53.484415 58.442796 C 53.96771 57.789785 54.415658 57.11336 54.828264 56.413534 C 55.24086 55.713697 55.615865 54.994268 55.953275 54.25524 C 56.290685 53.516214 56.588666 52.761617 56.847219 51.99145 C 57.105764 51.22128 57.323469 50.43973 57.500337 49.646814 C 57.677206 48.853895 57.812269 48.053918 57.905534 47.246885 C 57.998788 46.439847 58.049734 45.630147 58.058374 44.817785 C 58.067007 44.005426 58.033285 43.194826 57.957208 42.38599 C 57.881124 41.577157 57.763093 40.774488 57.603124 39.97798 C 57.44315 39.181486 57.242109 38.39549 57 37.62 C 56.93106 37.45915 56.817026 37.34232 56.657888 37.269514 C 56.49875 37.196706 56.33579 37.186807 56.169008 37.23981 C 56.002225 37.292818 55.874887 37.394987 55.786985 37.54631 C 55.69908 37.69763 55.67342 37.85886 55.71 38.03 C 55.953947 38.808916 56.153924 39.59896 56.309934 40.400136 C 56.46595 41.20131 56.577035 42.008665 56.643194 42.8222 C 56.709344 43.635744 56.730154 44.45044 56.705629 45.266294 C 56.6811 46.082155 56.611387 46.89413 56.496488 47.702226 C 56.381586 48.51032 56.222204 49.309545 56.01834 50.099897 C 55.814485 50.890256 55.567407 51.666864 55.27711 52.429719 C 54.98681 53.19257 54.655084 53.93696 54.281934 54.66289 C 53.908784 55.38883 53.496515 56.09182 53.04512 56.77187 C 52.593725 57.451913 52.10599 58.104818 51.58193 58.73058 C 51.05786 59.356336 50.500699 59.951089 49.910436 60.51484 C 49.320169 61.07858 48.700448 61.607835 48.051275 62.102605 C 47.402105 62.597375 46.72749 63.054605 46.027429 63.47429 C 45.327363 63.893968 44.606176 64.27351 43.86387 64.61293 C 43.121564 64.95234 42.362718 65.24952 41.587335 65.50447 C 40.811948 65.75942 40.024808 65.970569 39.22592 66.13791 C 38.427038 66.30525 37.621335 66.42775 36.808816 66.50541 C 35.996294 66.58307 35.181974 66.61542 34.365854 66.60244 C 33.549734 66.58946 32.73685 66.53125 31.927212 66.4278 C 31.11757 66.32435 30.316168 66.1763 29.523005 65.98365 C 28.729842 65.791 27.949816 65.55494 27.182929 65.275478 C 26.416039 64.996 25.66702 64.67484 24.935879 64.31201 C 24.204735 63.949178 23.49598 63.546899 22.80961 63.105176 C 22.123242 62.66345 21.463498 62.18501 20.830382 61.669858 C 20.197266 61.1547 19.594685 60.606016 19.02264 60.023794 C 18.450594 59.441568 17.912617 58.829404 17.408707 58.187299 C 16.904797 57.545194 16.438067 56.877119 16.008517 56.183069 C 15.578965 55.489019 15.189247 54.773279 14.83936 54.035848 C 14.489473 53.29842 14.18158 52.543859 13.915679 51.77216 C 13.649777 51.000459 13.427511 50.216394 13.248879 49.419958 C 13.070247 48.623517 12.936353 47.81963 12.847197 47.008295 C 12.75804 46.196954 12.714171 45.38317 12.715591 44.566949 C 12.717012 43.750726 12.763713 42.937105 12.855692 42.12608 C 12.94767 41.315057 13.08436 40.511636 13.265762 39.715826 C 13.447164 38.920015 13.672157 38.136724 13.940743 37.365957 C 14.209328 36.595186 14.519845 35.841699 14.872295 35.10549 C 15.224746 34.36928 15.616952 33.654905 16.048916 32.962358 C 16.480879 32.269804 16.94993 31.603354 17.45607 30.963007 C 17.962212 30.32266 18.502316 29.712372 19.076384 29.132143 C 19.650452 28.55191 20.254937 28.005322 20.889842 27.492373 C 21.524746 26.979424 22.18615 26.503283 22.87405 26.063952 C 23.561949 25.624619 24.272099 25.224806 25.004502 24.864516 C 25.736903 24.504223 26.48703 24.185679 27.254889 23.90888 C 28.022744 23.63208 28.803586 23.398737 29.597413 23.208847 C 30.391243 23.018959 31.193158 22.8737 32.003156 22.773066 C 32.81315 22.672432 33.62623 22.617047 34.442388 22.606913 C 35.258546 22.596777 36.07275 22.631955 36.885 22.712445 C 37.697244 22.792933 38.502515 22.918236 39.30081 23.088353 C 40.09911 23.25847 40.885507 23.472353 41.66 23.73 C 41.831605 23.774279 41.99588 23.755265 42.152833 23.672959 C 42.309785 23.590657 42.41884 23.466338 42.48 23.3 Z "/>
<path transform="matrix(-2.4890483,0,0,-2.470664,441.11549,1041.482)" d="M 34.21 43.4 C 33.987035 43.607927 33.931745 43.85359 34.04413 44.136987 C 34.15651 44.420385 34.36513 44.56139 34.67 44.56 C 34.85301 44.561838 35.009679 44.498506 35.14 44.370004 L 51.54 28.650002 C 51.799978 29.021973 52.13331 29.30864 52.54 29.510003 C 52.59 29.510003 56.260004 29.680003 59.9 29.680003 C 63.210004 29.680003 66.5 29.550004 67 29.090003 C 67.14 28.960003 80.63 15.630002 80.64 13.870002 C 80.64 11.870002 79.54 11.450002 76.86 11.160002 C 75.49 11.020001 73.69 10.950002 72.11 10.890001 C 71.11 10.890001 69.83 10.810001 69.23 10.750001 C 69.23 10.340001 69.3 9.620001 69.350009 9.02 C 69.55799 7.2809855 69.60466 5.537652 69.490009 3.7900005 C 69.25 1.12 68.81 0 66.85 0 C 65.07 0 51.75 13.52 51.62 13.66 C 50.77 14.59 51.039999 23.880002 51.19 27.119999 L 34.21 43.4 Z M 76.76 12.51 C 79.340007 12.780001 79.340007 13.08 79.340007 13.77 C 78.88 15.19 67.77 26.55 66.19 28 C 64.9 28.43 54.38 28.3 52.99 28.17 C 52.80806 28.03091 52.651395 27.867577 52.52 27.68 L 68.86 12.05 C 69.93681 12.167662 71.016819 12.230994 72.1 12.24 C 73.66 12.3 75.43 12.37 76.76 12.51 Z M 52.670003 14.51 C 54.160005 12.93 65.51 1.8100004 66.83 1.3500004 C 67.61 1.3500004 67.92 1.3500004 68.19 3.9300004 C 68.29042 5.6007854 68.24375 7.2674515 68.05 8.93 C 67.960948 9.650621 67.920948 10.373955 67.93 11.1 L 52.4 26 C 52.31 22.57 52.31 15.56 52.67 14.51 L 52.670003 14.51 Z "/>
</g>
<g id="Layer-1" data-name="Image">
<path transform="matrix(2.7777777,0,0,-2.7777777,0,1063.9999)" d="M 207.73857 309.28813 L 282.4412 309.28813 L 282.4412 383.03999 L 207.73857 383.03999 Z " fill-opacity="0"/>
</g>
<g id="Layer-1" data-name="Image">
<path transform="matrix(2.7777777,0,0,-2.7777777,0,1063.9999)" d="M 187.09926 274.62669 L 348.04609 274.62669 L 348.04609 376.80644 L 187.09926 376.80644 Z " fill-opacity="0"/>
</g>
<g id="Layer-1" data-name="Image">
<path transform="matrix(2.7777777,0,0,-2.7777777,0,1063.9999)" d="M 227.11064 331.2138 L 255.69396 331.2138 L 255.69396 359.79713 L 227.11064 359.79713 Z " fill-opacity="0"/>
</g>
<g id="Layer-1" data-name="Image">
<path transform="matrix(2.7777777,0,0,-2.7777777,0,1063.9999)" d="M 26.95393 34.677003 L 348.04606 34.677003 L 348.04606 355.76914 L 26.95393 355.76914 Z " fill-opacity="0"/>
</g>
<g id="Layer-1" data-name="Image">
<path transform="matrix(2.7777777,0,0,-2.7777777,0,1063.9999)" d="M 38.010618 47.98678 L 336.1879 47.98678 L 336.1879 346.16407 L 38.010618 346.16407 Z " fill-opacity="0"/>
</g>
<g id="Layer-1" data-name="Image">
<path transform="matrix(2.7777777,0,0,-2.7777777,0,1063.9999)" d="M 186.18279 345.13047 L 255.69394 345.13047 L 255.69394 345.88047 L 186.18279 345.88047 Z " fill-opacity="0"/>
</g>
<g id="Layer-1" data-name="Image">
<path transform="matrix(2.7777777,0,0,-2.7777777,0,1063.9999)" d="M 132.08142 48.226377 L 201.59259 48.226377 L 201.59259 48.976377 L 132.08142 48.976377 Z " fill-opacity="0"/>
</g>
<g id="Layer-1" data-name="Image">
<path transform="matrix(2.7777777,0,0,-2.7777777,0,1063.9999)" d="M 26.95393 15.455966 L 187.09926 15.455966 L 187.09926 133.37738 L 26.95393 133.37738 Z " fill-opacity="0"/>
</g>
<g id="Layer-1" data-name="Image">
<path transform="matrix(2.7777777,0,0,-2.7777777,0,1063.9999)" d="M 114.40178 33.648038 L 142.98509 33.648038 L 142.98509 62.23135 L 114.40178 62.23135 Z " fill-opacity="0"/>
</g>
<g id="Layer-1" data-name="Image">
<path transform="matrix(2.7777777,0,0,-2.7777777,0,1063.9999)" d="M 86.88405 8.039989 L 161.58667 8.039989 L 161.58667 81.791858 L 86.88405 81.791858 Z " fill-opacity="0"/>
</g>
</g>
</svg>
