<?xml version="1.0" encoding="UTF-8" standalone="no"?>
<!DOCTYPE svg PUBLIC "-//W3C//DTD SVG 1.1//EN" "http://www.w3.org/Graphics/SVG/1.1/DTD/svg11.dtd">
<svg xmlns="http://www.w3.org/2000/svg" xmlns:xlink="http://www.w3.org/1999/xlink" version="1.1" width="1041.6666pt" height="1041.6666pt" viewBox="0 0 1041.6666 1041.6666">
<g enable-background="new">
<clipPath id="cp0">
<path transform="matrix(.6666666,0,0,.6666666,0,0)" d="M 0 0 L 1562.5 0 L 1562.5 1562.5 L 0 1562.5 Z " fill-rule="evenodd"/>
</clipPath>
<g clip-path="url(#cp0)">
<path transform="matrix(2.0833333,0,0,2.0833333,0,0)" d="M 0 0 L 500 0 L 500 500 L 0 500 Z " fill="#ffffff"/>
</g>
<clipPath id="cp1">
<path transform="matrix(.6666666,0,0,.6666666,0,0)" d="M 0 0 L 1562.5 0 L 1562.5 1562.5 L 0 1562.5 Z " fill-rule="evenodd"/>
</clipPath>
<g clip-path="url(#cp1)">
<path transform="matrix(2.0833333,0,0,2.0833333,0,0)" d="M 0 0 L 500 0 L 500 500 L 0 500 Z " fill="#ffffff"/>
</g>
<clipPath id="cp2">
<path transform="matrix(.6666666,0,0,.6666666,0,0)" d="M 0 0 L 1562.5 0 L 1562.5 1562.5 L 0 1562.5 Z " fill-rule="evenodd"/>
</clipPath>
<g clip-path="url(#cp2)">
<g id="Layer-1" data-name="H1">
<g id="Layer-2" data-name="P">
</g>
<symbol id="font_3_4f">
<path d="M .544 .71500006 C .5566667 .715 .56633338 .711 .573 .703 C .5803333 .69566676 .584 .68566676 .584 .67300006 L .584 .042 C .584 .029333333 .5803333 .019000002 .573 .011 C .56633338 .0036666666 .5566667 0 .544 0 C .5313334 0 .5213334 .0036666666 .514 .011 C .50666669 .019000002 .503 .029333333 .503 .042 L .503 .328 L .08100001 .328 L .08100001 .042 C .08100001 .029333333 .07733334 .019000002 .07 .011 C .06266668 .0036666666 .052666677 0 .04 0 C .027333333 0 .01733333 .0036666666 .009999998 .011 C .0033333328 .019000002 0 .029333333 0 .042 L 0 .67300006 C 0 .68566676 .0033333328 .69566676 .009999998 .703 C .01733333 .711 .027333333 .715 .04 .71500006 C .052666677 .715 .06266668 .711 .07 .703 C .07733334 .69566676 .08100001 .68566676 .08100001 .67300006 L .08100001 .398 L .503 .398 L .503 .67300006 C .503 .68566676 .50666669 .69566676 .514 .703 C .5213334 .711 .5313334 .715 .544 .71500006 Z "/>
</symbol>
<use xlink:href="#font_3_4f" transform="matrix(31.908432,7.5594379,7.5594379,-31.908432,476.21366,814.381)" fill="#31302c"/>
</g>
<g id="Layer-1" data-name="H1">
<g id="Layer-2" data-name="P">
</g>
<symbol id="font_3_2f">
<path d="M .042000005 0 C .029333337 0 .019000002 .003666667 .011 .011000001 C .0036666666 .018333335 0 .028000003 0 .040000004 L 0 .665 C 0 .67700007 .0036666666 .68666669 .011 .694 C .019000002 .70133337 .029333337 .7050001 .042000005 .70500007 L .416 .70500007 C .428 .7050001 .43733336 .7020001 .444 .69600006 C .45066668 .69000008 .454 .6816667 .454 .671 C .454 .66033336 .45066668 .652 .444 .646 C .43733336 .64000007 .428 .637 .416 .637 L .08100001 .637 L .08100001 .39200003 L .396 .39200003 C .40800003 .39200006 .41733337 .38900004 .42400003 .38300003 C .4306667 .377 .43400003 .36866669 .43400003 .358 C .43400003 .34733335 .4306667 .339 .42400003 .333 C .41733337 .327 .40800003 .324 .396 .324 L .08100001 .324 L .08100001 .068 L .416 .068 C .428 .068 .43733336 .065000008 .444 .059000005 C .45066668 .05366667 .454 .045333338 .454 .034 C .454 .023333336 .45066668 .015000001 .444 .009000001 C .43733336 .0030000003 .428 0 .416 0 L .042000005 0 Z "/>
</symbol>
<use xlink:href="#font_3_2f" transform="matrix(32.724916,2.0912557,2.0912557,-32.724916,528.0913,823.346)" fill="#31302c"/>
</g>
<g id="Layer-1" data-name="H1">
<g id="Layer-2" data-name="P">
</g>
<symbol id="font_3_4">
<path d="M .665 .052 C .6676667 .046666668 .66899999 .040999999 .669 .035 C .66899999 .025 .665 .016666668 .65700009 .010000001 C .6496667 .0033333337 .6406667 0 .63000008 0 C .6133334 0 .6016667 .008 .595 .024000003 L .52400007 .186 L .14700002 .186 L .075 .024000003 C .068333338 .008 .056666674 0 .040000008 0 C .029333339 0 .020000002 .0033333337 .012 .010000001 C .004 .017333335 0 .026000003 0 .036000004 C 0 .041333334 .001333333 .046666668 .003999999 .052 L .29 .688 C .294 .69733336 .29999999 .70433339 .308 .70900008 C .31599999 .7136667 .32466666 .716 .334 .716 C .344 .716 .35300002 .71333339 .361 .708 C .369 .7033334 .375 .6966667 .379 .688 L .665 .052 M .17700002 .254 L .494 .254 L .335 .61300006 L .17700002 .254 Z "/>
</symbol>
<use xlink:href="#font_3_4" transform="matrix(32.617177,-3.3783479,-3.3783479,-32.617177,573.0901,824.09848)" fill="#31302c"/>
</g>
<g id="Layer-1" data-name="H1">
<g id="Layer-2" data-name="P">
</g>
<symbol id="font_3_a4">
<path d="M .538 .057000005 C .5426667 .049666674 .545 .042000008 .545 .034 C .545 .024000003 .541 .015666668 .533 .009 C .52566668 .0029999999 .517 0 .507 0 C .4916667 0 .4796667 .0066666665 .47100003 .02 L .337 .23200001 C .31966669 .25933335 .30166669 .27800004 .283 .28800003 C .26433335 .2986667 .23900001 .30400003 .20699999 .30400003 L .08100001 .30400003 L .08100001 .043 C .08100001 .030333335 .07733334 .020000002 .07 .012 C .06266668 .0046666667 .053000004 .0009999997 .041 .0009999997 C .028333335 .0009999997 .018333333 .0046666667 .011 .012 C .0036666666 .020000002 0 .030333335 0 .043 L 0 .671 C 0 .683 .0036666666 .6926667 .011 .7 C .019000002 .7073333 .029333337 .711 .042000005 .711 L .29 .711 C .36666668 .711 .42500005 .694 .46500004 .66 C .5056667 .626 .526 .57600006 .526 .51 C .526 .454 .5096667 .40900005 .477 .37500004 C .44500003 .34100006 .39900003 .32033337 .33900003 .31300003 C .35566668 .3076667 .37066666 .29900003 .384 .28700004 C .39733336 .275 .4106667 .25833337 .42400003 .237 L .538 .057000005 M .283 .37200005 C .33766667 .37200008 .37833334 .38333337 .405 .40600003 C .43233336 .42866669 .446 .46300004 .44600005 .509 C .446 .5543334 .4326667 .588 .40600003 .61 C .37933336 .632 .33833335 .643 .283 .643 L .08100001 .643 L .08100001 .37200005 L .283 .37200005 Z "/>
</symbol>
<use xlink:href="#font_3_a4" transform="matrix(31.548798,-8.942395,-8.942395,-31.548798,626.035,815.68069)" fill="#31302c"/>
</g>
<g id="Layer-1" data-name="H1">
<g id="Layer-2" data-name="P">
</g>
<symbol id="font_3_b9">
<path d="M .29500003 0 C .28233335 0 .27199999 .0036666666 .264 .011 C .25666667 .019000002 .253 .029333333 .253 .042 L .253 .64000007 L .038000004 .64000007 C .026 .64000007 .016666666 .64300009 .01 .64900007 C .0033333332 .65500006 0 .6636667 0 .675 C 0 .68633338 .0033333332 .695 .01 .70100006 C .016666666 .707 .026 .71000006 .038000004 .71000006 L .551 .71000006 C .563 .71000006 .57233336 .707 .579 .70100006 C .5856667 .695 .58900007 .68633338 .58900007 .675 C .58900007 .6636667 .5856667 .65500006 .579 .64900007 C .57233336 .64300009 .563 .64000007 .551 .64000007 L .336 .64000007 L .336 .042 C .336 .029333333 .33233334 .019000002 .32500003 .011 C .31766669 .0036666666 .3076667 0 .29500003 0 Z "/>
</symbol>
<use xlink:href="#font_3_b9" transform="matrix(29.643237,-14.020406,-14.020406,-29.643237,671.0676,800.3346)" fill="#31302c"/>
</g>
<g id="Layer-1" data-name="H1">
<g id="Layer-2" data-name="P">
</g>
</g>
<g id="Layer-1" data-name="H1">
<g id="Layer-2" data-name="P">
</g>
<symbol id="font_3_7e">
<path d="M .32100005 0 C .2556667 0 .19866668 .014666668 .15 .044000005 C .102000009 .07333334 .065000008 .11500001 .038999998 .16900002 C .012999999 .223 0 .28666667 0 .36 C 0 .43400003 .012666668 .49800004 .038000004 .55200007 C .064 .60666677 .10100001 .6483334 .149 .67700007 C .19766669 .7063334 .25500003 .721 .32100005 .7210001 C .387 .721 .444 .7063334 .49200005 .67700007 C .54066678 .6483334 .5776667 .60666677 .60300007 .55200007 C .629 .49800004 .642 .43433333 .642 .361 C .642 .28766669 .629 .22366669 .60300007 .16900002 C .577 .11500001 .5396667 .07333334 .49100007 .044000005 C .44300006 .014666668 .38633339 0 .32100005 0 M .32100005 .07 C .3956667 .07 .4536667 .095000009 .49500007 .14500001 C .537 .19566667 .558 .26766668 .558 .361 C .558 .4543334 .53733339 .526 .49600006 .57600006 C .4546667 .626 .39633338 .651 .32100005 .651 C .24633336 .651 .18800001 .6256667 .14600002 .57500007 C .10466667 .52500006 .084000017 .4536667 .08400001 .361 C .084000017 .26833336 .10466667 .19666668 .14600002 .14600002 C .18800001 .09533334 .24633336 .07 .32100005 .07 Z "/>
</symbol>
<use xlink:href="#font_3_7e" transform="matrix(24.361666,-21.949997,-21.949997,-24.361666,743.4519,755.77029)" fill="#31302c"/>
</g>
<g id="Layer-1" data-name="H1">
<g id="Layer-2" data-name="P">
</g>
<symbol id="font_3_47">
<path d="M .041 0 C .028333335 0 .018333333 .0036666666 .011 .011 C .0036666666 .019000002 0 .029333333 0 .042 L 0 .67 C 0 .682 .0036666666 .69166669 .011 .699 C .019000002 .70633336 .029333337 .71000006 .042000005 .71000006 L .40600003 .71000006 C .418 .71000006 .42733336 .707 .43400003 .70100006 C .44066669 .695 .444 .68633338 .444 .675 C .444 .66433337 .44066669 .6560001 .43400003 .65000006 C .42733336 .64400008 .418 .64100006 .40600003 .64100006 L .08100001 .64100006 L .08100001 .398 L .386 .398 C .398 .398 .40733338 .39499999 .41400004 .389 C .4206667 .38300003 .42400003 .37433336 .42400003 .363 C .42400003 .35233335 .4206667 .344 .41400004 .338 C .40733338 .332 .398 .329 .386 .329 L .08100001 .329 L .08100001 .042 C .08100001 .029333333 .07733334 .019000002 .07 .011 C .06333333 .0036666666 .053666664 0 .041 0 Z "/>
</symbol>
<use xlink:href="#font_3_47" transform="matrix(20.355767,-25.708676,-25.708676,-20.355767,781.151,717.5127)" fill="#31302c"/>
</g>
<g id="Layer-1" data-name="H1">
<g id="Layer-2" data-name="P">
</g>
</g>
<g id="Layer-1" data-name="H1">
<g id="Layer-2" data-name="P">
</g>
<symbol id="font_3_a1">
<path d="M .041 0 C .028333335 0 .018333333 .0036666666 .011 .011 C .0036666666 .019000002 0 .029333333 0 .042 L 0 .67 C 0 .682 .0036666666 .69166669 .011 .699 C .019000002 .70633336 .029333337 .71000006 .042000005 .71000006 L .279 .71000006 C .35300002 .71000006 .41033338 .6920001 .45100004 .656 C .49233333 .62 .513 .569 .513 .503 C .513 .43700005 .49233333 .3856667 .45100004 .349 C .4096667 .31233336 .35233335 .294 .279 .294 L .08200001 .294 L .08200001 .042 C .08200001 .029333333 .07833334 .019000002 .071 .011 C .063666667 .0036666666 .053666664 0 .041 0 M .271 .36200003 C .37833337 .36200003 .43200005 .409 .43200005 .503 C .43200005 .5956667 .37833337 .642 .271 .642 L .08200001 .642 L .08200001 .36200003 L .271 .36200003 Z "/>
</symbol>
<use xlink:href="#font_3_a1" transform="matrix(12.385585,-30.36265,-30.36265,-12.385585,824.03079,647.9834)" fill="#31302c"/>
</g>
<g id="Layer-1" data-name="H1">
<g id="Layer-2" data-name="P">
</g>
<use xlink:href="#font_3_a4" transform="matrix(7.125038,-32.008237,-32.008237,-7.125038,839.97158,601.6735)" fill="#31302c"/>
</g>
<g id="Layer-1" data-name="H1">
<g id="Layer-2" data-name="P">
</g>
<use xlink:href="#font_3_7e" transform="matrix(1.4394679,-32.760057,-32.760057,-1.4394679,848.1696,552.80508)" fill="#31302c"/>
</g>
<g id="Layer-1" data-name="H1">
<g id="Layer-2" data-name="P">
</g>
<symbol id="font_3_27">
<path d="M .042000005 0 C .029333337 0 .019000002 .003666667 .011 .011000001 C .0036666666 .018333335 0 .028000003 0 .040000004 L 0 .665 C 0 .67700007 .0036666666 .68666669 .011 .694 C .019000002 .70133337 .029333337 .7050001 .042000005 .70500007 L .23699999 .70500007 C .34966669 .7050001 .4366667 .6743334 .49800004 .61300006 C .56 .55233338 .591 .46566669 .591 .35300002 C .591 .24033337 .56 .15333335 .49800004 .09200001 C .43600003 .03066667 .34899999 0 .23699999 0 L .042000005 0 M .232 .07 C .41466669 .07 .50600007 .16433335 .50600007 .35300002 C .50600007 .54100009 .41466669 .63500007 .232 .63500007 L .08200001 .63500007 L .08200001 .07 L .232 .07 Z "/>
</symbol>
<use xlink:href="#font_3_27" transform="matrix(-4.3890039,-32.496614,-32.496614,4.3890039,847.2411,499.01347)" fill="#31302c"/>
</g>
<g id="Layer-1" data-name="H1">
<g id="Layer-2" data-name="P">
</g>
<symbol id="font_3_c0">
<path d="M .28000004 0 C .18800001 0 .11833334 .024000003 .07100001 .072000008 C .02366667 .120000008 0 .19066668 0 .284 L 0 .67600008 C 0 .68866679 .0036666666 .69866678 .011 .70600005 C .018333333 .71400007 .028333335 .7180001 .041 .71800008 C .053000004 .7180001 .06266667 .71400007 .07000001 .70600005 C .07733334 .69866678 .081 .68866679 .081 .67600008 L .081 .277 C .081 .20833333 .09766667 .15666668 .13100001 .12200001 C .165 .087333347 .21466668 .07 .28000004 .07 C .34533335 .07 .39466668 .087333347 .42800004 .12200001 C .46133337 .15666668 .47800002 .20833333 .478 .277 L .478 .67600008 C .47800002 .68866679 .48166666 .69866678 .48900003 .70600005 C .49699999 .71400007 .50699999 .7180001 .519 .71800008 C .5316667 .7180001 .5416667 .71400007 .549 .70600005 C .55633339 .69866678 .56 .68866679 .56 .67600008 L .56 .284 C .56 .19133334 .536 .120666678 .48800005 .072000008 C .44066669 .024000003 .37133337 0 .28000004 0 Z "/>
</symbol>
<use xlink:href="#font_3_c0" transform="matrix(-10.006867,-31.227488,-31.227488,10.006867,837.6358,447.94697)" fill="#31302c"/>
</g>
<g id="Layer-1" data-name="H1">
<g id="Layer-2" data-name="P">
</g>
<symbol id="font_3_20">
<path d="M .325 0 C .25833334 0 .20066667 .014333334 .15200001 .043 C .10333333 .072333339 .06566667 .114 .038999998 .16800002 C .012999999 .22266667 0 .287 0 .361 C 0 .43433333 .012999999 .49800004 .038999998 .55200007 C .06566667 .60666677 .10333333 .6483334 .15200001 .67700007 C .20066667 .7063334 .25833334 .721 .325 .7210001 C .36966668 .721 .41166673 .71366676 .45100004 .69900009 C .49100004 .685 .5256667 .6646667 .55500009 .6380001 C .56566676 .628 .57100006 .61633339 .57100006 .60300007 C .57100006 .59366676 .5683334 .5853334 .563 .57800009 C .5576667 .57133337 .55133339 .568 .544 .568 C .5360001 .568 .5263334 .5716667 .51500007 .57900008 C .48100005 .6056667 .45000006 .6243334 .422 .63500007 C .39466668 .64566668 .36300005 .651 .32700003 .651 C .24966669 .651 .19000001 .6256667 .148 .57500007 C .10666666 .52500006 .085999999 .4536667 .085999999 .361 C .085999999 .26766668 .10666666 .19566667 .148 .14500001 C .19000001 .095000009 .24966669 .07 .32700003 .07 C .36233334 .07 .39399997 .075333338 .422 .086 C .45000006 .09666667 .48100005 .11533334 .51500007 .142 C .5263334 .14933335 .5360001 .15300001 .544 .15300001 C .55133339 .15300001 .5576667 .14966668 .563 .143 C .5683334 .13633333 .57100006 .128 .57100006 .11800001 C .57100006 .10466667 .56566676 .093 .55500009 .083000008 C .5256667 .056333335 .49100004 .03566667 .45100004 .021000002 C .41166673 .0070000009 .36966668 0 .325 0 Z "/>
</symbol>
<use xlink:href="#font_3_20" transform="matrix(-15.212762,-29.049355,-29.049355,15.212762,819.4338,400.38078)" fill="#31302c"/>
</g>
<g id="Layer-1" data-name="H1">
<g id="Layer-2" data-name="P">
</g>
<use xlink:href="#font_3_b9" transform="matrix(-19.779498,-26.15463,-26.15463,19.779498,794.9064,358.9652)" fill="#31302c"/>
</g>
<g id="Layer-1" data-name="H1">
<g id="Layer-2" data-name="P">
</g>
<symbol id="font_3_54">
<path d="M .041 0 C .028333335 0 .018333333 .0036666666 .011 .011 C .0036666666 .019000002 0 .029333333 0 .042 L 0 .67300006 C 0 .68566676 .0036666666 .69566676 .011 .703 C .018333333 .711 .028333335 .715 .041 .71500006 C .053666664 .715 .063666667 .711 .071 .703 C .07833334 .69566676 .08200001 .68566676 .08200001 .67300006 L .08200001 .042 C .08200001 .029333333 .07833334 .019000002 .071 .011 C .063666667 .0036666666 .053666664 0 .041 0 Z "/>
</symbol>
<use xlink:href="#font_3_54" transform="matrix(-23.25674,-23.11747,-23.11747,23.25674,762.67477,320.89503)" fill="#31302c"/>
</g>
<g id="Layer-1" data-name="H1">
<g id="Layer-2" data-name="P">
</g>
<symbol id="font_3_d7">
<path d="M .592 .694 C .59533336 .70133337 .59999999 .707 .606 .711 C .61266669 .715 .61966666 .717 .62700006 .717 C .6376667 .717 .647 .71333339 .65500006 .70600005 C .66366669 .69933339 .668 .69100007 .668 .68100008 C .668 .67566677 .6666667 .6703334 .66400006 .665 L .37700004 .027000003 C .37300004 .018333335 .367 .011666667 .35900004 .007 C .35100005 .0023333335 .34233336 0 .33300004 0 C .3236667 0 .31500004 .0023333335 .307 .007 C .29900003 .011666667 .293 .018333335 .28900004 .027000003 L .0030000015 .665 C .0010000011 .6703334 .0000000009313226 .6753333 .0000000009313226 .68 C .0000000009313226 .6906667 .0043333347 .69933339 .013000001 .70600005 C .02166667 .71333339 .03133334 .717 .042000005 .717 C .058 .717 .06966666 .70933338 .077 .694 L .335 .11100001 L .592 .694 Z "/>
</symbol>
<use xlink:href="#font_3_d7" transform="matrix(-26.37732,-19.481535,-19.481535,26.37732,737.78128,298.3483)" fill="#31302c"/>
</g>
<g id="Layer-1" data-name="H1">
<g id="Layer-2" data-name="P">
</g>
<use xlink:href="#font_3_54" transform="matrix(-28.934733,-15.429661,-15.429661,28.934733,693.6946,269.4604)" fill="#31302c"/>
</g>
<g id="Layer-1" data-name="H1">
<g id="Layer-2" data-name="P">
</g>
<use xlink:href="#font_3_b9" transform="matrix(-30.814965,-11.212995,-11.212995,30.814965,663.6456,255.20079)" fill="#31302c"/>
</g>
<g id="Layer-1" data-name="H1">
<g id="Layer-2" data-name="P">
</g>
<symbol id="font_3_de">
<path d="M .522 .699 C .53000006 .70900008 .5396667 .71400007 .55100008 .71400007 C .56033346 .71400007 .5686667 .71033337 .57600006 .703 C .58333346 .69566676 .5870001 .68666669 .5870001 .676 C .5870001 .666 .58400008 .6576667 .57800009 .651 L .335 .344 L .335 .042 C .335 .028666668 .331 .018333335 .323 .011 C .31566669 .0036666666 .306 0 .294 0 C .28199999 0 .27199999 .0036666666 .264 .011 C .25666667 .018333335 .253 .028666668 .253 .042 L .253 .345 L .010000002 .651 C .003333334 .65833339 .0000000004656613 .6666667 .0000000004656613 .676 C .0000000004656613 .68666669 .0036666676 .69566676 .011000002 .703 C .019000002 .71033337 .028000003 .71400007 .038000004 .71400007 C .049333335 .71400007 .059000005 .70900008 .06700001 .699 L .29500003 .40800003 L .522 .699 Z "/>
</symbol>
<use xlink:href="#font_3_de" transform="matrix(-32.21218,-6.137466,-6.137466,32.21218,618.3468,241.12004)" fill="#31302c"/>
</g>
</g>
<clipPath id="cp4">
<path transform="matrix(.6666666,0,0,.6666666,0,0)" d="M 0 0 L 1562.5 0 L 1562.5 1562.5 L 0 1562.5 Z "/>
</clipPath>
<g clip-path="url(#cp4)">
<clipPath id="cp5">
<path transform="matrix(.6666666,0,0,.6666666,0,0)" d="M 0 0 L 1562.5 0 L 1562.5 1562.5 L 0 1562.5 Z "/>
</clipPath>
<g clip-path="url(#cp5)">
<clipPath id="cp6">
<path transform="matrix(.6666666,0,0,.6666666,0,0)" d="M 221.40393 1094.9469 L 424.19886 246.98456 L 880.0926 356.0141 L 677.29769 1203.9765 L 221.40393 1094.9469 Z "/>
</clipPath>
<g clip-path="url(#cp6)">
<clipPath id="cp7">
<path transform="matrix(.6666666,0,0,.6666666,0,0)" d="M 221.40393 1094.9469 L 424.19886 246.98456 L 880.0926 356.0141 L 677.29769 1203.9765 L 221.40393 1094.9469 Z "/>
</clipPath>
<g clip-path="url(#cp7)">
<path transform="matrix(.123998347,-.5184841,.5184841,.123998347,168.54512,734.97317)" d="M 1088.47 544.23 L 1078.47 544.23 C 1078.47 249.66 838.81 10 544.23 10 C 249.64997 10 10 249.66 10 544.23 L 0 544.23 C .010211227 528.68 .68545177 513.15896 2.0257219 497.66679 C 3.365992 482.17466 5.3663794 466.76823 8.026884 451.4475 C 10.687389 436.1268 13.998259 420.94798 17.959496 405.91099 C 21.920735 390.874 26.517823 376.03398 31.750758 361.39094 C 36.983694 346.7479 42.833295 332.35548 49.29957 318.2137 C 55.765844 304.07197 62.825094 290.23268 70.47731 276.6958 C 78.129528 263.15898 86.346668 249.9742 95.12874 237.14153 C 103.910808 224.30886 113.22562 211.87529 123.07317 199.84084 C 132.92072 187.80637 143.26493 176.21514 154.10578 165.06711 C 164.94663 153.91909 176.24439 143.25514 187.99907 133.07526 C 199.75376 122.89538 211.92226 113.23688 224.50461 104.09977 C 237.08696 94.96266 250.03705 86.380428 263.35487 78.35306 C 276.67268 70.32569 290.3094 62.88261 304.26499 56.023828 C 318.2206 49.165044 332.444 42.915685 346.93516 37.275754 C 361.4263 31.635823 376.1321 26.625992 391.05259 22.24626 C 405.97306 17.866528 421.0535 14.132944 436.2939 11.045512 C 451.53434 7.9580805 466.87889 5.5281145 482.3275 3.7556134 C 497.77616 1.9831126 513.2723 .8745736 528.8159 .42999593 C 544.35958 -.01458171 559.89376 .20643175 575.41848 1.093036 C 590.9432 1.9796403 606.4015 3.5285862 621.79348 5.739874 C 637.1854 7.9511616 652.4546 10.816686 667.601 14.336448 C 682.74746 17.85621 697.7156 22.017312 712.50546 26.819748 C 727.2953 31.622185 741.8526 37.04836 756.1774 43.098268 C 770.50228 49.148176 784.54208 55.799646 798.2969 63.052686 C 812.0517 70.30572 825.4711 78.133739 838.5552 86.536739 C 851.63919 94.939739 864.33987 103.886928 876.65719 113.378299 C 888.9745 122.86966 900.8633 132.87042 912.3236 143.3806 C 923.78396 153.89076 934.77377 164.87181 945.293 176.32373 C 955.8124 187.77565 965.82266 199.6565 975.3238 211.96623 C 984.82498 224.27597 993.7823 236.96952 1002.19577 250.04685 C 1010.6092 263.12419 1018.44796 276.53739 1025.7119 290.28645 C 1032.976 304.0355 1039.6386 318.07 1045.7 332.39 C 1059.8812 365.8985 1070.5723 400.48585 1077.7731 436.152 C 1084.9741 471.81819 1088.5397 507.84419 1088.47 544.23 Z " fill="#31302c"/>
</g>
</g>
</g>
</g>
<clipPath id="cp8">
<path transform="matrix(.6666666,0,0,.6666666,0,0)" d="M 0 0 L 1562.5 0 L 1562.5 1562.5 L 0 1562.5 Z " fill-rule="evenodd"/>
</clipPath>
<g clip-path="url(#cp8)">
<g id="Layer-1" data-name="P">
<g id="Layer-2" data-name="P">
</g>
<symbol id="font_9_38">
<path d="M .0029999987 .6980001 C .0009999996 .69800016 0 .69866678 0 .70000007 C 0 .7020001 .0009999996 .70300009 .0029999987 .70300009 L .17900002 .70300009 L .26 .70300009 L .261 .70300009 L .437 .70300009 C .439 .70300009 .44000004 .7020001 .44000004 .70000007 C .44000004 .69866678 .439 .69800016 .437 .6980001 L .263 .6980001 L .263 .003 C .263 .001 .262 0 .26 0 L .17900002 0 C .17766668 0 .177 .001 .17700002 .003 L .17700002 .6980001 L .0029999987 .6980001 Z "/>
</symbol>
<use xlink:href="#font_9_38" transform="matrix(333.3125,0,0,-333.3125,378.0374,683.6462)"/>
</g>
<g id="Layer-1" data-name="P">
<g id="Layer-2" data-name="P">
</g>
<symbol id="font_9_34">
<path d="M .017 .70300009 L .017 .70300009 L .263 .70300009 C .29566667 .70300009 .32533334 .6950001 .352 .6790001 C .37866668 .66300007 .4 .6416667 .416 .61500009 C .432 .58833339 .44000004 .5586667 .44000004 .526 C .44000004 .49333335 .432 .46366669 .416 .437 C .4 .41033338 .37866668 .38900004 .352 .373 C .32533334 .357 .29566667 .349 .263 .349 L .086 .349 L .086 .003 C .086 .001 .08533334 0 .08400001 0 L .0029999987 0 C .0009999996 0 0 .001 0 .003 L 0 .70000007 C 0 .7020001 .0009999996 .70300009 .0029999987 .70300009 L .017 .70300009 M .18200001 .354 L .18200001 .354 L .263 .354 C .2796667 .354 .29466669 .36166669 .308 .377 C .322 .393 .333 .41400004 .34100003 .44 C .34966669 .466 .354 .49466668 .354 .526 C .354 .5573334 .34966669 .586 .34100003 .61200007 C .333 .638 .322 .6586667 .308 .674 C .29466669 .69000008 .2796667 .69800016 .263 .6980001 L .044 .6980001 C .05666667 .6926667 .06666667 .684 .074 .67200008 C .082 .6606667 .086 .64800009 .086 .63400009 L .086 .354 L .18200001 .354 Z "/>
</symbol>
<use xlink:href="#font_9_34" transform="matrix(333.3125,0,0,-333.3125,534.24929,599.5985)" fill="#ff5757"/>
</g>
</g>
<g id="Layer-1" data-name="Image">
<path transform="matrix(2.7777777,0,0,-2.7777777,0,1063.9999)" d="M 53.13763 94.14262 L 210.88985 94.14262 L 210.88985 323.44636 L 53.13763 323.44636 Z " fill-opacity="0"/>
</g>
</g>
</svg>
