<?xml version="1.0" encoding="UTF-8" standalone="no"?>
<!DOCTYPE svg PUBLIC "-//W3C//DTD SVG 1.1//EN" "http://www.w3.org/Graphics/SVG/1.1/DTD/svg11.dtd">
<svg xmlns="http://www.w3.org/2000/svg" xmlns:xlink="http://www.w3.org/1999/xlink" version="1.1" width="249.99999pt" height="124.99999pt" viewBox="0 0 249.99999 124.99999">
<g enable-background="new">
<clipPath id="cp0">
<path transform="matrix(.6666666,0,0,.6666666,0,0)" d="M 0 0 L 375 0 L 375 187.5 L 0 187.5 Z " fill-rule="evenodd"/>
</clipPath>
<g clip-path="url(#cp0)">
<path transform="matrix(2.0833333,0,0,2.0833333,0,0)" d="M 0 0 L 120 0 L 120 60 L 0 60 Z " fill="#ffffff"/>
</g>
<clipPath id="cp1">
<path transform="matrix(.6666666,0,0,.6666666,0,0)" d="M 0 0 L 375 0 L 375 187.5 L 0 187.5 Z " fill-rule="evenodd"/>
</clipPath>
<g clip-path="url(#cp1)">
<path transform="matrix(2.0833333,0,0,2.0833333,0,0)" d="M 0 0 L 120 0 L 120 60 L 0 60 Z " fill="#ffffff"/>
</g>
<clipPath id="cp2">
<path transform="matrix(.6666666,0,0,.6666666,0,0)" d="M 0 0 L 375 0 L 375 187.5 L 0 187.5 Z " fill-rule="evenodd"/>
</clipPath>
<g clip-path="url(#cp2)">
<g id="Layer-1" data-name="H1">
<g id="Layer-2" data-name="P">
</g>
<symbol id="font_3_57">
<path d="M .18300002 0 L .18300002 .013 C .19833334 .017666668 .20866668 .027666668 .214 .043 C .22000002 .058333335 .223 .086333338 .223 .127 L .223 .684 L .17400001 .684 C .12933333 .684 .09533334 .67700007 .072000008 .66300007 C .048666669 .649 .028333335 .624 .011 .588 L 0 .59000006 L .006000001 .70000007 L .521 .70000007 L .52700009 .59000006 L .51600006 .588 C .49933339 .624 .47933338 .649 .45600004 .66300007 C .4326667 .67700007 .39833335 .684 .35300002 .684 L .30600003 .684 L .30600003 .127 C .30600003 .086333338 .30866669 .058333335 .314 .043 C .32000003 .027666668 .3306667 .017666668 .34600003 .013 L .34600003 0 L .18300002 0 Z "/>
</symbol>
<symbol id="font_3_e4">
<path d="M .38400004 .010000001 C .36400006 .010000001 .354 .020000002 .35400004 .040000004 L .35400004 .22000002 C .344 .17933335 .32833336 .14233335 .307 .109000008 C .28566668 .07566667 .2606667 .049000008 .23200003 .029000003 C .20400001 .009666667 .17333335 0 .14000002 0 C .11533335 0 .09233335 .0050000005 .07100001 .015000001 C .049666674 .025 .032333334 .039666669 .019000002 .059000005 C .006333334 .07833333 0 .10233334 0 .13100001 C 0 .16566669 .010333333 .194 .031 .21600002 C .051666667 .23800002 .079 .256 .113000009 .27 C .14766668 .284 .18466668 .29633335 .224 .307 L .35400004 .342 C .35133339 .3906667 .33800004 .42633335 .314 .449 C .29000003 .47233335 .2566667 .48400007 .21400002 .48400004 C .18400002 .48400007 .15466668 .4766667 .12600002 .462 C .09800001 .44800005 .07133334 .4256667 .046 .395 L .037000006 .403 C .06566667 .43833337 .09800001 .466 .13400002 .486 C .17066668 .50666669 .21066667 .517 .254 .517 C .3146667 .517 .35933338 .501 .388 .469 C .41666667 .43766669 .43100003 .39366666 .43100003 .337 L .43100003 .13700001 C .43100003 .09633333 .4336667 .068333338 .43900005 .053000004 C .44500003 .037666669 .4556667 .027666668 .47100006 .023000002 L .47100006 .010000001 L .38400004 .010000001 M .075 .15900001 C .075 .12633334 .08466667 .10133333 .10400002 .084 C .12400001 .06733333 .14833336 .059000005 .17700002 .059000005 C .20366669 .059000005 .22766668 .06633333 .24900002 .081 C .271 .09633333 .28966669 .116000007 .305 .14000002 C .32033334 .16400002 .33233337 .19000001 .34100003 .21800001 C .34966669 .24599999 .354 .273 .35400004 .299 L .35400004 .327 L .35400004 .329 L .22800002 .29500003 C .20333334 .28833334 .17900002 .27933333 .15500002 .268 C .13166668 .25733335 .112333338 .24333334 .097 .22600001 C .082333337 .20866668 .075 .18633335 .075 .15900001 Z "/>
</symbol>
<symbol id="font_3_135">
<path d="M .19100002 0 C .15100001 0 .11466668 .0050000005 .082 .015000001 C .05 .025 .02566667 .035333337 .009000003 .046 L 0 .16700001 L .009000003 .16900002 C .030333339 .12166667 .058333339 .08433334 .09300001 .057 C .12766667 .030333335 .16766668 .016666668 .21300002 .016 C .24433334 .016 .27 .024333334 .29000003 .041 C .31066669 .058333339 .321 .081 .321 .109000008 C .321 .133 .314 .15233334 .3 .16700001 C .2866667 .18166667 .2686667 .19366668 .24600002 .20300001 C .22400002 .21233334 .2 .22100002 .17400001 .22900002 C .14266669 .23900002 .11466667 .24933334 .09 .26000003 C .06533334 .27133335 .046000005 .286 .032 .30400003 C .018000003 .32200004 .011000004 .34600006 .011000004 .37600003 C .011000004 .41533337 .026666671 .44833336 .058000003 .47500003 C .09 .50233337 .135 .51600006 .19300002 .51600006 C .22566669 .51600006 .2556667 .513 .28300003 .507 C .31100003 .5016667 .33266668 .49566666 .34800003 .48900003 L .35200004 .38700003 L .342 .38500003 C .326 .421 .303 .44966666 .27300004 .47100003 C .24300003 .49233333 .21033335 .503 .17500001 .503 C .14100002 .503 .113666679 .49533335 .09300001 .48000003 C .07300001 .4646667 .06300001 .44433335 .06300001 .41900004 C .06300001 .39833335 .06933334 .381 .082 .367 C .09533334 .35300002 .11266669 .341 .13400002 .33100004 C .15600002 .3216667 .18 .31266669 .20600002 .30400003 C .22533335 .298 .2446667 .29133336 .26400004 .284 C .28400005 .27733336 .30200003 .26866669 .31800003 .25800003 C .3346667 .24800003 .34800003 .23466669 .358 .21800001 C .36866669 .202 .37399999 .18133335 .374 .156 C .37399999 .128 .367 .102000009 .35300002 .07800001 C .3396667 .05466667 .31933335 .036000004 .29200004 .022 C .26466669 .008 .23100002 .0006666668 .19100002 0 Z "/>
</symbol>
<symbol id="font_3_117">
<path d="M 0 0 L 0 .013 C .015333335 .017666668 .025666669 .027666668 .031000004 .043 C .037000006 .058333335 .040000008 .086333338 .040000008 .127 L .040000008 .657 C .040000008 .6803334 .038333339 .6976667 .035000005 .70900008 C .032333338 .721 .028000003 .7296667 .022000004 .735 C .01666667 .7403334 .009333335 .74500009 0 .749 L 0 .76000007 L .10900001 .808 L .118 .80100008 L .118 .21700001 L .29200004 .384 C .3246667 .416 .344 .441 .35000003 .45900003 C .35600005 .47700004 .35333336 .48833338 .342 .49300004 L .342 .5 L .46 .5 L .46 .48700003 C .44533337 .48233334 .42866669 .47566668 .41000004 .467 C .39133335 .45833335 .36733339 .44000004 .33800004 .41200004 L .266 .342 L .38300003 .13100001 C .40233336 .09633335 .4206667 .068 .43800003 .046000005 C .45533339 .024666667 .47533337 .013333333 .49800004 .012 L .49800004 0 L .43300004 0 C .4083334 0 .38633336 .008666667 .367 .026 C .34833337 .044 .32666669 .075333338 .30200003 .120000008 L .21100001 .289 L .118 .19900002 L .118 .127 C .118 .086333338 .12066666 .058333335 .126 .043 C .13200002 .027666668 .14266669 .017666668 .158 .013 L .158 0 L 0 0 Z "/>
</symbol>
<use xlink:href="#font_3_57" transform="matrix(61.104166,0,0,-61.104166,10.157354,78.125)"/>
<use xlink:href="#font_3_e4" transform="matrix(61.104166,0,0,-61.104166,45.53445,78.73604)"/>
<use xlink:href="#font_3_135" transform="matrix(61.104166,0,0,-61.104166,77.91757,78.674938)"/>
<use xlink:href="#font_3_117" transform="matrix(61.104166,0,0,-61.104166,105.229389,78.125)"/>
</g>
<g id="Layer-1" data-name="H1">
<g id="Layer-2" data-name="P">
</g>
<symbol id="font_4_54">
<path d="M .3516667 1.0830001 L .3516667 1.0830001 C .3716667 1.0770002 .38500009 1.0610001 .3916667 1.0350001 C .3983334 1.0096668 .39733339 .9800001 .3886667 .9460001 C .37866674 .9093334 .36166669 .8773334 .3376667 .8500001 C .31433336 .8226667 .29200004 .80033347 .2706667 .78300008 C .2446667 .7616667 .21600002 .74300006 .1846667 .72700008 C .17400003 .6850001 .16300003 .6383334 .15166669 .5870001 C .14033336 .5350001 .12900003 .48200009 .117666687 .42800007 C .10633335 .37333337 .095666687 .3203334 .08566669 .26900006 C .07566669 .21700005 .066666688 .16933339 .058666685 .12600005 C .050000013 .082000058 .043333349 .045333387 .03866668 .016000033 C .03666668 .005333384 .030333348 .000000059604648 .01966668 .000000059604648 C .018333348 .000000059604648 .01733335 .000000059604648 .01666668 .000000059604648 C .011333346 .0006667177 .007333348 .00333337 .004666686 .008000016 C .001333346 .012000044 .000000009934108 .01666671 .00066667798 .022000015 C .006000012 .060000045 .013000014 .10500006 .021666684 .15700007 C .030333348 .20900005 .040000015 .26533339 .050666684 .32600007 C .06066668 .38600008 .07133335 .44766674 .08266668 .51100006 C .09333334 .57433339 .10433335 .6366667 .11566669 .6980001 C .10766669 .6953334 .099666688 .6930001 .09166668 .69100007 C .08633336 .68900009 .08133335 .68933346 .07666668 .6920001 C .07200002 .6946668 .06900001 .69866678 .06766669 .70400008 C .06633335 .7093334 .06700002 .71433338 .06966668 .7190001 C .07233335 .7236667 .07633335 .72666677 .081666689 .72800007 C .09500002 .73133346 .10866669 .73600009 .12266669 .7420001 C .12600002 .76000007 .12933336 .77766677 .13266669 .7950001 C .13600002 .8123334 .13900002 .8293335 .14166668 .8460001 C .15100003 .8986667 .1596667 .947 .16766669 .99100008 C .17566669 1.0356668 .18200004 1.0723335 .1866667 1.1010001 C .19200003 1.1303334 .19466669 1.1470001 .19466669 1.151 C .19466669 1.1630001 .20066668 1.1693335 .21266669 1.1700001 C .21800001 1.1706668 .2226667 1.1690002 .22666669 1.1650001 C .2306667 1.1616668 .23300004 1.1573334 .23366669 1.1520001 C .2336667 1.1506667 .23300003 1.146 .23166669 1.1380001 C .23100002 1.1300001 .22900003 1.1166668 .2256667 1.098 C .22233336 1.0793334 .21733336 1.0523334 .21066669 1.0170001 C .20466669 .98166677 .19666668 .9360001 .1866667 .8800001 C .20466669 .93133339 .22200002 .97133347 .23866669 1.0000001 C .256 1.0293335 .272 1.0500001 .2866667 1.062 C .30133338 1.0746667 .31400005 1.0816668 .32466669 1.0830001 C .33600006 1.085 .34500004 1.085 .3516667 1.0830001 M .3516667 .9560001 L .3516667 .9560001 C .35833336 .9820001 .35966669 1.0030001 .3556667 1.019 C .3523334 1.0350001 .34733335 1.0440002 .3406667 1.0460001 C .34000004 1.0466668 .33900003 1.047 .3376667 1.047 C .33233337 1.047 .3236667 1.042 .3116667 1.0320001 C .30033339 1.0226668 .28666673 1.0046668 .2706667 .97800007 C .25533334 .9520001 .23900002 .9133334 .2216667 .8620001 C .21500004 .84200009 .20700002 .81400009 .19766669 .77800008 C .2336667 .80000016 .26600004 .82633349 .2946667 .8570001 C .32333336 .88766679 .34233336 .92066678 .3516667 .9560001 Z "/>
</symbol>
<symbol id="font_4_59">
<path d="M .41233335 .259 L .41233335 .259 C .41633336 .25633336 .419 .25233338 .42033334 .24700001 C .42166666 .24166668 .421 .237 .41833336 .23300001 C .41300003 .22433333 .40433336 .21100001 .39233334 .193 C .381 .17500001 .367 .15500002 .35033334 .133 C .33433334 .11166667 .317 .090666677 .29833336 .07 C .28033335 .05 .26233334 .033333336 .24433334 .02 C .22633334 .0066666665 .20966669 0 .19433335 0 C .18900001 0 .18433334 .0009999996 .18033335 .0029999987 C .16366668 .009 .15300001 .024333334 .14833334 .049000004 C .14433335 .07366667 .14600002 .10933334 .15333334 .156 C .14466667 .14466667 .13533335 .133 .12533334 .12100001 C .11533334 .109000008 .10466667 .098 .09333334 .088 C .076000008 .07333333 .061333334 .06733333 .049333339 .07 C .037333337 .07266667 .029333333 .076 .025333334 .08 C .013333335 .089999999 .006000001 .105 .0033333339 .125 C .00000000062088176 .14566668 .0010000008 .16833334 .0063333346 .193 C .011000001 .21833335 .020000002 .24266668 .033333336 .266 C .036000004 .2706667 .040000004 .27366666 .045333338 .275 C .05066667 .27633334 .05566667 .27566669 .060333339 .273 C .065000008 .27033336 .067999999 .26633335 .06933334 .261 C .07066667 .25633336 .07 .25166667 .06733333 .24700001 C .055333336 .227 .04733334 .20700002 .043333338 .187 C .039333337 .16766668 .038000004 .15100001 .039333337 .13700001 C .041333338 .123 .044666668 .114 .049333339 .11 C .052000006 .108 .055333336 .10833334 .05933334 .111 C .064 .11433334 .067 .11633334 .068333338 .117 C .081 .12833333 .093 .14133334 .10433334 .156 C .115666668 .17066668 .12533334 .18400002 .13333334 .19600001 C .14400001 .21066667 .15266668 .22133334 .15933335 .228 C .16666667 .23533334 .17500001 .237 .18433334 .23300001 C .19366668 .22966667 .19833334 .22233333 .19833334 .21100001 C .19833334 .19966668 .19666668 .18433334 .19333335 .165 C .18666667 .12633334 .18366666 .09800001 .18433334 .08 C .185 .06266666 .18666668 .051333336 .18933335 .046 C .19200002 .041333334 .19366668 .039 .19433335 .039 C .20233333 .03566667 .22433333 .051333339 .26033334 .086 C .29633335 .12133333 .33800004 .177 .38533334 .25300003 C .388 .25766669 .392 .26033334 .39733333 .261 C .40266667 .26233337 .40766669 .2616667 .41233335 .259 Z "/>
</symbol>
<symbol id="font_4_50">
<path d="M .395 1.4020001 L .395 1.4020001 C .4036667 1.3893334 .4036667 1.3636669 .395 1.325 C .387 1.2863335 .37000004 1.2383334 .34400005 1.181 C .31800003 1.1243334 .28333334 1.0613334 .24000003 .99200007 C .23933335 .9913334 .2386667 .9906667 .23800002 .99000009 C .22066669 .9193334 .20333334 .84733346 .18600002 .77400007 C .16933334 .7006667 .15333335 .6286667 .13800001 .558 C .12266668 .4873334 .10866668 .421 .09600001 .35900004 C .08333334 .29633338 .072666678 .2406667 .06400001 .19200003 C .05466668 .14333336 .048000009 .10433335 .044000009 .07500002 C .044666679 .07500002 .04533334 .07500002 .046000009 .07500002 C .05133334 .07300002 .055333344 .06966669 .05800001 .06500003 C .060000007 .06033336 .060000007 .055333359 .05800001 .050000013 C .053333343 .03733335 .048666676 .026000014 .044000009 .016000003 C .038666674 .005333334 .031666675 0 .02300001 0 C .02100001 0 .018666678 .00033333899 .01600001 .0010000169 C .010000008 .003000011 .005666673 .0073333384 .003000006 .013999999 C .00033333899 .020000002 .000000004967054 .032666673 .002000004 .052000017 C .004000008 .07066668 .008333343 .099666688 .015000008 .13900003 C .027000009 .21100003 .045000007 .30500005 .069000009 .42100004 C .08633334 .50233337 .10433334 .58500006 .12300001 .669 C .14233335 .7536667 .16133334 .83500006 .18 .91300007 C .19866669 .9916668 .21666669 1.0630001 .23400001 1.1270001 C .23733336 1.1396668 .24233336 1.1573335 .24900002 1.1800001 C .25566668 1.2026666 .26333336 1.227 .272 1.253 C .28066669 1.279 .29033337 1.304 .301 1.3280001 C .3116667 1.3520001 .32266668 1.3716668 .33400003 1.3870001 C .34533335 1.403 .35666669 1.4120001 .36800004 1.414 C .37933336 1.416 .38833336 1.4120001 .395 1.4020001 M .273 1.1240001 L .273 1.1240001 C .30500005 1.184 .32733337 1.2340001 .34000004 1.274 C .35333336 1.3140001 .36100004 1.343 .36300005 1.3610001 C .3536667 1.3476668 .34100006 1.3223335 .32500003 1.2850001 C .30900003 1.2483333 .29166667 1.1946668 .273 1.1240001 Z "/>
</symbol>
<symbol id="font_4_57">
<path d="M .42933337 .61800006 L .42933337 .61800006 C .43333338 .6146667 .4356667 .6103334 .43633337 .605 C .43700005 .59966668 .43533335 .595 .43133337 .591 C .41200004 .5683334 .3906667 .54333338 .36733336 .51600006 C .344 .48866669 .321 .462 .29833336 .43600003 C .27633337 .41 .25733338 .3876667 .24133334 .36900003 C .22533334 .34966669 .21466668 .3366667 .20933335 .33 C .19800002 .31533338 .18699999 .30100004 .17633334 .28700004 C .18500002 .24833335 .18566668 .21200001 .17833334 .17800002 C .17166668 .14333336 .16000001 .11266669 .14333335 .086000028 C .12733335 .059333344 .110333349 .038666678 .09233333 .024000019 C .07366667 .008000006 .056333335 0 .040333336 0 C .030333335 0 .022 .0033333402 .015333334 .01000002 C .004 .020666689 0 .03666668 .0033333339 .058 C .007333333 .07866668 .016 .102333348 .029333335 .12900001 C .04266667 .15566668 .058666666 .18333335 .07733333 .21200003 C .09600001 .24066669 .11500001 .26833336 .13433334 .29500003 C .13100001 .307 .12633334 .31933335 .120333347 .33200003 C .11433334 .344 .10733334 .35633336 .09933333 .36900003 C .072 .41033338 .048666669 .44900004 .029333335 .485 C .0106666679 .5216667 .0020000004 .555 .0033333339 .58500006 C .0066666665 .64033338 .03133333 .6816667 .07733333 .70900008 C .09600001 .7203334 .11566668 .72700008 .13633335 .72900006 C .15700002 .731 .17600002 .728 .19333335 .72 C .19800002 .7173334 .20100002 .7133334 .20233335 .70800009 C .20433335 .7033334 .20433335 .69866678 .20233335 .694 C .19966668 .6893334 .19566669 .68600007 .19033335 .684 C .18566668 .6826667 .18100001 .6830001 .17633334 .68500009 C .15233334 .6963334 .126 .6933333 .09733334 .676 C .06266668 .65533336 .04433334 .6243334 .042333336 .58300009 C .041 .55833336 .049333335 .52933338 .06733334 .49600006 C .08533334 .46266673 .10666666 .4276667 .13133334 .39100004 C .14400001 .37166668 .15433334 .352 .16233334 .33200003 C .16766668 .33866669 .17333335 .34600006 .17933335 .35400004 C .18466668 .36066667 .19533335 .37366668 .21133335 .39300005 C .228 .41233338 .24733335 .43500004 .26933337 .46100004 C .29133336 .48700009 .314 .5136667 .33733336 .541 C .36133338 .5683333 .38300003 .59333339 .40233336 .61600008 C .40566669 .62000009 .41 .62233337 .41533337 .623 C .4206667 .6236667 .42533336 .62200006 .42933337 .61800006 M .10433334 .09500003 L .10433334 .09500003 C .109000008 .102333348 .11466668 .113000009 .121333349 .127 C .128 .14033334 .13366668 .15700002 .13833335 .17700002 C .14366667 .19633335 .14533334 .21800001 .14333335 .24200003 C .112666677 .19866669 .08966667 .16266668 .07433334 .134 C .059666676 .10533335 .05 .08366668 .045333338 .069000009 C .041333338 .05366667 .040000004 .043666673 .041333338 .039000006 C .046000005 .039000006 .05433334 .04333334 .06633334 .052000017 C .07833333 .06066669 .091 .075000029 .10433334 .09500003 Z "/>
</symbol>
<symbol id="font_4_49">
<path d="M .3656667 .27600003 L .3656667 .27600003 C .37033335 .27333335 .37300004 .26933334 .37366668 .264 C .37433336 .25866667 .37333334 .254 .37066669 .25 C .33133335 .19533335 .29533337 .15000002 .26266668 .11400001 C .23000002 .07866667 .19733334 .049333339 .16466668 .026000003 C .14 .008666667 .115666668 0 .09166667 0 C .07300001 0 .056666674 .0050000005 .042666668 .015000001 C .033333336 .021666669 .024333334 .03366667 .015666668 .051000004 C .006333334 .06766667 .0013333336 .09200001 .0006666668 .124000009 C 0 .15666668 .008 .19933336 .024666667 .25200004 L .024666667 .25300003 C .044666668 .317 .067999999 .36566667 .09466667 .39900003 C .122 .433 .14533334 .45033337 .16466668 .45100004 C .18000002 .45166669 .19000001 .44500003 .19466669 .43100003 C .20200002 .41166667 .19333335 .38400004 .16866668 .34800003 C .14400001 .31266669 .10766667 .275 .05966667 .23500002 C .045 .18833335 .038000004 .15166667 .03866667 .125 C .039333334 .099 .043 .080000009 .04966667 .068 C .056333338 .056666674 .061666669 .049333335 .06566667 .046000005 C .085666667 .03133334 .11133333 .035333337 .14266667 .058000003 C .17333335 .079333338 .20433335 .107 .23566668 .141 C .26700003 .17566668 .30133335 .21933334 .33866669 .272 C .342 .276 .34633336 .27833335 .35166667 .279 C .357 .28033338 .36166669 .27933336 .3656667 .27600003 M .15766669 .409 L .15766669 .409 C .15033335 .40433336 .14033334 .39433337 .12766667 .379 C .115 .36433337 .102 .34266673 .08866667 .314 C .11266667 .33733336 .12966667 .35700003 .13966668 .37300004 C .14966668 .3896667 .15566668 .40166668 .15766669 .409 Z "/>
</symbol>
<use xlink:href="#font_4_54" transform="matrix(61.104166,0,0,-61.104166,133.05934,121.631168)" fill="#ff5757"/>
<use xlink:href="#font_4_59" transform="matrix(61.104166,0,0,-61.104166,159.10889,80.75248)" fill="#ff5757"/>
<use xlink:href="#font_4_50" transform="matrix(61.104166,0,0,-61.104166,175.62596,106.53844)" fill="#ff5757"/>
<use xlink:href="#font_4_57" transform="matrix(61.104166,0,0,-61.104166,192.04203,101.89452)" fill="#ff5757"/>
<use xlink:href="#font_4_49" transform="matrix(61.104166,0,0,-61.104166,214.01757,81.36352)" fill="#ff5757"/>
</g>
</g>
</g>
</svg>
